<?xml version="1.0" encoding="utf-8"?>
<!-- Generator: Adobe Illustrator 23.0.1, SVG Export Plug-In . SVG Version: 6.00 Build 0)  -->
<svg version="1.1" xmlns="http://www.w3.org/2000/svg" xmlns:xlink="http://www.w3.org/1999/xlink" x="0px" y="0px"
	 viewBox="0 0 390 470" style="enable-background:new 0 0 390 470;" xml:space="preserve">
<style type="text/css">
	.st0{clip-path:url(#SVGID_6_);}
	.st1{clip-path:url(#SVGID_7_);fill:url(#SVGID_8_);}
	.st2{clip-path:url(#SVGID_7_);}
	.st3{fill:#FFFFFF;}
	.st4{fill:none;stroke:#FFFFFF;stroke-width:1.9148;stroke-miterlimit:10;}
	.st5{opacity:0.25;clip-path:url(#SVGID_7_);fill:#FFFFFF;}
	.st6{opacity:0.25;fill:#FFFFFF;}
	.st7{opacity:0.25;fill:none;stroke:#FFFFFF;stroke-width:1.473;stroke-miterlimit:10;}
	.st8{opacity:0.25;clip-path:url(#SVGID_7_);fill:none;stroke:#FFFFFF;stroke-width:53.0263;stroke-miterlimit:10;}
	.st9{opacity:0.25;clip-path:url(#SVGID_7_);fill:none;stroke:#FFFFFF;stroke-width:14.7295;stroke-miterlimit:10;}
	.st10{clip-path:url(#SVGID_7_);fill:none;stroke:#FFFFFF;stroke-width:1.1047;stroke-miterlimit:10;}
	.st11{fill:none;stroke:#FFFFFF;stroke-width:1.473;stroke-miterlimit:10;}
	.st12{fill:#EFF3FF;}
	.st13{fill:#E9C924;}
	.st14{clip-path:url(#SVGID_11_);}
	.st15{clip-path:url(#SVGID_14_);}
	.st16{clip-path:url(#SVGID_16_);fill:url(#SVGID_17_);}
	.st17{clip-path:url(#SVGID_16_);}
	.st18{fill:url(#SVGID_18_);}
	.st19{fill:url(#SVGID_19_);}
	.st20{fill:url(#SVGID_20_);}
	.st21{fill:url(#SVGID_21_);}
	.st22{fill:url(#SVGID_22_);}
	.st23{fill:url(#SVGID_23_);}
	.st24{fill:url(#SVGID_24_);}
	.st25{fill:url(#SVGID_25_);}
	.st26{fill:url(#SVGID_26_);}
	.st27{fill:url(#SVGID_27_);}
	.st28{fill:url(#SVGID_28_);}
	.st29{fill:url(#SVGID_29_);}
	.st30{fill:url(#SVGID_30_);}
	.st31{fill:url(#SVGID_31_);}
	.st32{fill:url(#SVGID_32_);}
	.st33{fill:url(#SVGID_33_);}
	.st34{fill:url(#SVGID_34_);}
	.st35{fill:url(#SVGID_35_);}
	.st36{fill:url(#SVGID_36_);}
	.st37{fill:url(#SVGID_37_);}
	.st38{fill:url(#SVGID_38_);}
	.st39{fill:url(#SVGID_39_);}
	.st40{fill:url(#SVGID_40_);}
	.st41{fill:url(#SVGID_41_);}
	.st42{fill:url(#SVGID_42_);}
	.st43{fill:url(#SVGID_43_);}
	.st44{fill:url(#SVGID_44_);}
	.st45{fill:url(#SVGID_45_);}
	.st46{fill:url(#SVGID_46_);}
	.st47{fill:url(#SVGID_47_);}
	.st48{fill:url(#SVGID_48_);}
	.st49{fill:url(#SVGID_49_);}
	.st50{fill:url(#SVGID_50_);}
	.st51{fill:url(#SVGID_51_);}
	.st52{fill:url(#SVGID_52_);}
	.st53{fill:url(#SVGID_53_);}
	.st54{fill:url(#SVGID_54_);}
	.st55{fill:url(#SVGID_55_);}
	.st56{fill:url(#SVGID_56_);}
	.st57{fill:url(#SVGID_57_);}
	.st58{fill:url(#SVGID_58_);}
	.st59{fill:url(#SVGID_59_);}
	.st60{fill:url(#SVGID_60_);}
	.st61{fill:url(#SVGID_61_);}
	.st62{fill:url(#SVGID_62_);}
	.st63{fill:url(#SVGID_63_);}
	.st64{fill:url(#SVGID_64_);}
	.st65{fill:url(#SVGID_65_);}
	.st66{fill:url(#SVGID_66_);}
	.st67{fill:url(#SVGID_67_);}
	.st68{fill:url(#SVGID_68_);}
	.st69{fill:url(#SVGID_69_);}
	.st70{fill:url(#SVGID_70_);}
	.st71{fill:url(#SVGID_71_);}
	.st72{fill:url(#SVGID_72_);}
	.st73{fill:url(#SVGID_73_);}
	.st74{fill:url(#SVGID_74_);}
	.st75{fill:url(#SVGID_75_);}
	.st76{fill:url(#SVGID_76_);}
	.st77{fill:url(#SVGID_77_);}
	.st78{fill:url(#SVGID_78_);}
	.st79{fill:url(#SVGID_79_);}
	.st80{fill:url(#SVGID_80_);}
	.st81{fill:url(#SVGID_81_);}
	.st82{fill:url(#SVGID_82_);}
	.st83{fill:url(#SVGID_83_);}
	.st84{fill:url(#SVGID_84_);}
	.st85{fill:url(#SVGID_85_);}
	.st86{fill:url(#SVGID_86_);}
	.st87{fill:url(#SVGID_87_);}
	.st88{fill:url(#SVGID_88_);}
	.st89{fill:url(#SVGID_89_);}
	.st90{fill:url(#SVGID_90_);}
	.st91{fill:url(#SVGID_91_);}
	.st92{fill:url(#SVGID_92_);}
	.st93{fill:url(#SVGID_93_);}
	.st94{fill:url(#SVGID_94_);}
	.st95{fill:url(#SVGID_95_);}
	.st96{fill:url(#SVGID_96_);}
	.st97{fill:url(#SVGID_97_);}
	.st98{fill:url(#SVGID_98_);}
	.st99{fill:url(#SVGID_99_);}
	.st100{fill:url(#SVGID_100_);}
	.st101{fill:url(#SVGID_101_);}
	.st102{fill:url(#SVGID_102_);}
	.st103{fill:url(#SVGID_103_);}
	.st104{fill:url(#SVGID_104_);}
	.st105{fill:url(#SVGID_105_);}
	.st106{fill:url(#SVGID_106_);}
	.st107{fill:url(#SVGID_107_);}
	.st108{fill:url(#SVGID_108_);}
	.st109{fill:url(#SVGID_109_);}
	.st110{fill:url(#SVGID_110_);}
	.st111{fill:url(#SVGID_111_);}
	.st112{fill:url(#SVGID_112_);}
	.st113{fill:url(#SVGID_113_);}
	.st114{fill:url(#SVGID_114_);}
	.st115{fill:url(#SVGID_115_);}
	.st116{fill:url(#SVGID_116_);}
	.st117{fill:url(#SVGID_117_);}
	.st118{fill:url(#SVGID_118_);}
	.st119{fill:url(#SVGID_119_);}
	.st120{fill:url(#SVGID_120_);}
	.st121{fill:url(#SVGID_121_);}
	.st122{fill:url(#SVGID_122_);}
	.st123{fill:url(#SVGID_123_);}
	.st124{fill:url(#SVGID_124_);}
	.st125{fill:url(#SVGID_125_);}
	.st126{fill:url(#SVGID_126_);}
	.st127{fill:url(#SVGID_127_);}
	.st128{fill:url(#SVGID_128_);}
	.st129{fill:url(#SVGID_129_);}
	.st130{fill:url(#SVGID_130_);}
	.st131{fill:url(#SVGID_131_);}
	.st132{fill:url(#SVGID_132_);}
	.st133{fill:url(#SVGID_133_);}
	.st134{fill:url(#SVGID_134_);}
	.st135{fill:url(#SVGID_135_);}
	.st136{fill:url(#SVGID_136_);}
	.st137{fill:url(#SVGID_137_);}
	.st138{fill:url(#SVGID_138_);}
	.st139{fill:url(#SVGID_139_);}
	.st140{fill:url(#SVGID_140_);}
	.st141{fill:url(#SVGID_141_);}
	.st142{fill:url(#SVGID_142_);}
	.st143{fill:url(#SVGID_143_);}
	.st144{fill:url(#SVGID_144_);}
	.st145{fill:url(#SVGID_145_);}
	.st146{fill:url(#SVGID_146_);}
	.st147{fill:url(#SVGID_147_);}
	.st148{fill:url(#SVGID_148_);}
	.st149{fill:url(#SVGID_149_);}
	.st150{fill:url(#SVGID_150_);}
	.st151{fill:url(#SVGID_151_);}
	.st152{fill:url(#SVGID_152_);}
	.st153{fill:url(#SVGID_153_);}
	.st154{fill:url(#SVGID_154_);}
	.st155{fill:url(#SVGID_155_);}
	.st156{fill:url(#SVGID_156_);}
	.st157{fill:url(#SVGID_157_);}
	.st158{fill:url(#SVGID_158_);}
	.st159{fill:url(#SVGID_159_);}
	.st160{fill:url(#SVGID_160_);}
	.st161{fill:url(#SVGID_161_);}
	.st162{fill:url(#SVGID_162_);}
	.st163{fill:url(#SVGID_163_);}
	.st164{fill:url(#SVGID_164_);}
	.st165{fill:url(#SVGID_165_);}
	.st166{fill:url(#SVGID_166_);}
	.st167{fill:url(#SVGID_167_);}
	.st168{fill:url(#SVGID_168_);}
	.st169{fill:url(#SVGID_169_);}
	.st170{fill:url(#SVGID_170_);}
	.st171{fill:url(#SVGID_171_);}
	.st172{fill:url(#SVGID_172_);}
	.st173{fill:url(#SVGID_173_);}
	.st174{fill:url(#SVGID_174_);}
	.st175{fill:url(#SVGID_175_);}
	.st176{fill:url(#SVGID_176_);}
	.st177{fill:url(#SVGID_177_);}
	.st178{fill:url(#SVGID_178_);}
	.st179{fill:url(#SVGID_179_);}
	.st180{fill:url(#SVGID_180_);}
	.st181{fill:url(#SVGID_181_);}
	.st182{fill:url(#SVGID_182_);}
	.st183{fill:url(#SVGID_183_);}
	.st184{fill:url(#SVGID_184_);}
	.st185{fill:url(#SVGID_185_);}
	.st186{fill:url(#SVGID_186_);}
	.st187{fill:url(#SVGID_187_);}
	.st188{fill:url(#SVGID_188_);}
	.st189{fill:url(#SVGID_189_);}
	.st190{fill:url(#SVGID_190_);}
	.st191{fill:url(#SVGID_191_);}
	.st192{fill:url(#SVGID_192_);}
	.st193{fill:url(#SVGID_193_);}
	.st194{fill:url(#SVGID_194_);}
	.st195{fill:url(#SVGID_195_);}
	.st196{fill:url(#SVGID_196_);}
	.st197{fill:url(#SVGID_197_);}
	.st198{fill:url(#SVGID_198_);}
	.st199{fill:url(#SVGID_199_);}
	.st200{fill:url(#SVGID_200_);}
	.st201{fill:url(#SVGID_201_);}
	.st202{fill:url(#SVGID_202_);}
	.st203{fill:url(#SVGID_203_);}
	.st204{fill:url(#SVGID_204_);}
	.st205{fill:url(#SVGID_205_);}
	.st206{fill:url(#SVGID_206_);}
	.st207{fill:url(#SVGID_207_);}
	.st208{fill:url(#SVGID_208_);}
	.st209{fill:url(#SVGID_209_);}
	.st210{fill:url(#SVGID_210_);}
	.st211{fill:url(#SVGID_211_);}
	.st212{fill:url(#SVGID_212_);}
	.st213{fill:url(#SVGID_213_);}
	.st214{fill:url(#SVGID_214_);}
	.st215{fill:url(#SVGID_215_);}
	.st216{fill:url(#SVGID_216_);}
	.st217{fill:url(#SVGID_217_);}
	.st218{fill:url(#SVGID_218_);}
	.st219{fill:url(#SVGID_219_);}
	.st220{fill:url(#SVGID_220_);}
	.st221{fill:url(#SVGID_221_);}
	.st222{fill:url(#SVGID_222_);}
	.st223{fill:url(#SVGID_223_);}
	.st224{fill:url(#SVGID_224_);}
	.st225{fill:url(#SVGID_225_);}
	.st226{fill:url(#SVGID_226_);}
	.st227{fill:url(#SVGID_227_);}
	.st228{fill:url(#SVGID_228_);}
	.st229{fill:url(#SVGID_229_);}
	.st230{fill:url(#SVGID_230_);}
	.st231{fill:url(#SVGID_231_);}
	.st232{fill:url(#SVGID_232_);}
	.st233{fill:url(#SVGID_233_);}
	.st234{fill:url(#SVGID_234_);}
	.st235{fill:url(#SVGID_235_);}
	.st236{fill:url(#SVGID_236_);}
	.st237{fill:url(#SVGID_237_);}
	.st238{fill:url(#SVGID_238_);}
	.st239{fill:url(#SVGID_239_);}
	.st240{fill:url(#SVGID_240_);}
	.st241{fill:url(#SVGID_241_);}
	.st242{fill:url(#SVGID_242_);}
	.st243{fill:url(#SVGID_243_);}
	.st244{fill:url(#SVGID_244_);}
	.st245{fill:url(#SVGID_245_);}
	.st246{fill:url(#SVGID_246_);}
	.st247{fill:url(#SVGID_247_);}
	.st248{fill:url(#SVGID_248_);}
	.st249{fill:url(#SVGID_249_);}
	.st250{fill:url(#SVGID_250_);}
	.st251{fill:url(#SVGID_251_);}
	.st252{fill:url(#SVGID_252_);}
	.st253{fill:url(#SVGID_253_);}
	.st254{fill:url(#SVGID_254_);}
	.st255{fill:url(#SVGID_255_);}
	.st256{fill:url(#SVGID_256_);}
	.st257{fill:url(#SVGID_257_);}
	.st258{fill:url(#SVGID_258_);}
	.st259{fill:url(#SVGID_259_);}
	.st260{fill:url(#SVGID_260_);}
	.st261{fill:url(#SVGID_261_);}
	.st262{fill:url(#SVGID_262_);}
	.st263{fill:url(#SVGID_263_);}
	.st264{fill:url(#SVGID_264_);}
	.st265{fill:url(#SVGID_265_);}
	.st266{fill:url(#SVGID_266_);}
	.st267{fill:url(#SVGID_267_);}
	.st268{fill:url(#SVGID_268_);}
	.st269{fill:url(#SVGID_269_);}
	.st270{fill:url(#SVGID_270_);}
	.st271{fill:url(#SVGID_271_);}
	.st272{fill:url(#SVGID_272_);}
	.st273{fill:url(#SVGID_273_);}
	.st274{fill:url(#SVGID_274_);}
	.st275{fill:url(#SVGID_275_);}
	.st276{fill:url(#SVGID_276_);}
	.st277{fill:url(#SVGID_277_);}
	.st278{fill:url(#SVGID_278_);}
	.st279{fill:url(#SVGID_279_);}
	.st280{fill:url(#SVGID_280_);}
	.st281{fill:url(#SVGID_281_);}
	.st282{fill:url(#SVGID_282_);}
	.st283{fill:url(#SVGID_283_);}
	.st284{fill:url(#SVGID_284_);}
	.st285{fill:url(#SVGID_285_);}
	.st286{fill:url(#SVGID_286_);}
	.st287{fill:url(#SVGID_287_);}
	.st288{fill:url(#SVGID_288_);}
	.st289{fill:url(#SVGID_289_);}
	.st290{fill:url(#SVGID_290_);}
	.st291{fill:url(#SVGID_291_);}
	.st292{fill:url(#SVGID_292_);}
	.st293{fill:url(#SVGID_293_);}
	.st294{fill:url(#SVGID_294_);}
	.st295{fill:url(#SVGID_295_);}
	.st296{fill:url(#SVGID_296_);}
	.st297{opacity:0.25;clip-path:url(#SVGID_16_);fill:url(#SVGID_297_);}
	.st298{opacity:0.25;clip-path:url(#SVGID_16_);fill:url(#SVGID_298_);}
	.st299{opacity:0.25;clip-path:url(#SVGID_16_);fill:url(#SVGID_299_);}
	.st300{opacity:0.25;fill:url(#SVGID_300_);}
	.st301{opacity:0.25;fill:url(#SVGID_301_);}
	.st302{opacity:0.25;fill:url(#SVGID_302_);}
	.st303{opacity:0.25;fill:url(#SVGID_303_);}
	.st304{opacity:0.25;fill:url(#SVGID_304_);}
	.st305{opacity:0.25;fill:url(#SVGID_305_);}
	.st306{opacity:0.25;clip-path:url(#SVGID_16_);fill:url(#SVGID_306_);}
	.st307{opacity:0.25;clip-path:url(#SVGID_16_);fill:url(#SVGID_307_);}
	.st308{opacity:0.25;clip-path:url(#SVGID_16_);fill:url(#SVGID_308_);}
	.st309{clip-path:url(#SVGID_16_);fill:url(#SVGID_309_);}
	.st310{clip-path:url(#SVGID_16_);fill:url(#SVGID_310_);}
	.st311{clip-path:url(#SVGID_16_);fill:url(#SVGID_311_);}
	.st312{clip-path:url(#SVGID_16_);fill:url(#SVGID_312_);}
	.st313{clip-path:url(#SVGID_16_);fill:url(#SVGID_313_);}
	.st314{clip-path:url(#SVGID_16_);fill:url(#SVGID_314_);}
	.st315{fill:url(#SVGID_315_);}
	.st316{fill:url(#SVGID_316_);}
	.st317{fill:url(#SVGID_317_);}
	.st318{fill:url(#SVGID_318_);}
	.st319{clip-path:url(#SVGID_321_);}
	.st320{fill:url(#SVGID_322_);}
	.st321{fill:url(#SVGID_323_);}
	.st322{fill:url(#SVGID_324_);}
	.st323{fill:url(#SVGID_325_);}
	.st324{fill:url(#SVGID_326_);}
	.st325{fill:url(#SVGID_327_);}
	.st326{fill:url(#SVGID_328_);}
	.st327{fill:url(#SVGID_329_);}
	.st328{fill:url(#SVGID_330_);}
	.st329{fill:url(#SVGID_331_);}
	.st330{fill:url(#SVGID_332_);}
	.st331{fill:url(#SVGID_333_);}
	.st332{fill:url(#SVGID_334_);}
	.st333{fill:url(#SVGID_335_);}
	.st334{fill:url(#SVGID_336_);}
	.st335{fill:url(#SVGID_337_);}
	.st336{fill:url(#SVGID_338_);}
	.st337{fill:url(#SVGID_339_);}
	.st338{fill:url(#SVGID_340_);}
	.st339{fill:url(#SVGID_341_);}
	.st340{fill:url(#SVGID_342_);}
	.st341{fill:url(#SVGID_343_);}
	.st342{fill:url(#SVGID_344_);}
	.st343{fill:url(#SVGID_345_);}
	.st344{fill:url(#SVGID_346_);}
	.st345{fill:url(#SVGID_347_);}
	.st346{fill:url(#SVGID_348_);}
	.st347{fill:url(#SVGID_349_);}
	.st348{fill:url(#SVGID_350_);}
	.st349{fill:url(#SVGID_351_);}
	.st350{fill:url(#SVGID_352_);}
	.st351{fill:url(#SVGID_353_);}
	.st352{fill:url(#SVGID_354_);}
	.st353{fill:url(#SVGID_355_);}
	.st354{fill:url(#SVGID_356_);}
	.st355{fill:url(#SVGID_357_);}
	.st356{fill:url(#SVGID_358_);}
	.st357{fill:url(#SVGID_359_);}
	.st358{fill:url(#SVGID_360_);}
	.st359{fill:url(#SVGID_361_);}
	.st360{fill:url(#SVGID_362_);}
	.st361{fill:url(#SVGID_363_);}
	.st362{fill:url(#SVGID_364_);}
	.st363{fill:url(#SVGID_365_);}
	.st364{fill:url(#SVGID_366_);}
	.st365{fill:url(#SVGID_367_);}
	.st366{fill:url(#SVGID_368_);}
	.st367{fill:url(#SVGID_369_);}
	.st368{fill:url(#SVGID_370_);}
	.st369{fill:url(#SVGID_371_);}
	.st370{fill:url(#SVGID_372_);}
	.st371{fill:url(#SVGID_373_);}
	.st372{fill:none;stroke:#999999;stroke-width:1.2645;stroke-miterlimit:10;}
	.st373{fill:#689F40;}
	.st374{fill:url(#SVGID_374_);}
	.st375{opacity:0.3;fill:#FFFFFF;}
	.st376{fill:#82419B;}
	.st377{fill:url(#SVGID_375_);}
	.st378{opacity:0.6;fill:#EBFBFB;}
	.st379{opacity:0.7;fill:url(#SVGID_376_);}
	.st380{fill:url(#SVGID_377_);}
	.st381{fill:#8DBEDD;}
	.st382{fill:#AA98D1;}
	.st383{opacity:0.4;fill:#5D82C1;}
	.st384{opacity:0.6;}
	.st385{fill:#67A0D4;}
	.st386{opacity:0.3;fill:#67A0D4;}
	.st387{opacity:0.4;fill:#6256C1;}
	.st388{opacity:0.9;fill:#8A45A5;}
	.st389{opacity:0.9;fill:#B176CB;}
	.st390{opacity:0.8;fill:#A954CA;}
	.st391{opacity:0.5;fill:#5985A9;}
	.st392{fill:#454B60;}
	.st393{fill:#181F30;}
	.st394{fill:#2B3141;}
	.st395{fill:#798690;}
	.st396{fill:#93A4B0;}
	.st397{opacity:0.4;fill:#454B60;}
	.st398{fill:#D46D6D;}
	.st399{fill:#D4E0E3;}
	.st400{opacity:0.3;fill:#454B60;}
	.st401{fill:#1E253D;}
	.st402{fill:#B14957;}
	.st403{opacity:0.5;fill:#8D414B;}
	.st404{opacity:0.3;fill:#D46D6D;}
	.st405{fill:#202434;}
	.st406{fill:#3D465A;}
	.st407{fill:#515A70;}
	.st408{fill:#009F40;}
	.st409{fill:#30364E;}
	.st410{fill:#D4AA91;}
	.st411{fill:#EAC4A5;}
	.st412{fill:#5A4445;}
	.st413{fill:#464951;}
	.st414{fill:#CE8E80;}
	.st415{fill:#FFB424;}
	.st416{clip-path:url(#SVGID_380_);}
	.st417{clip-path:url(#SVGID_383_);}
	.st418{clip-path:url(#SVGID_385_);fill:url(#SVGID_386_);}
	.st419{clip-path:url(#SVGID_385_);}
	.st420{fill:url(#SVGID_387_);}
	.st421{fill:url(#SVGID_388_);}
	.st422{fill:url(#SVGID_389_);}
	.st423{fill:url(#SVGID_390_);}
	.st424{fill:url(#SVGID_391_);}
	.st425{fill:url(#SVGID_392_);}
	.st426{fill:url(#SVGID_393_);}
	.st427{fill:url(#SVGID_394_);}
	.st428{fill:url(#SVGID_395_);}
	.st429{fill:url(#SVGID_396_);}
	.st430{fill:url(#SVGID_397_);}
	.st431{fill:url(#SVGID_398_);}
	.st432{fill:url(#SVGID_399_);}
	.st433{fill:url(#SVGID_400_);}
	.st434{fill:url(#SVGID_401_);}
	.st435{fill:url(#SVGID_402_);}
	.st436{fill:url(#SVGID_403_);}
	.st437{fill:url(#SVGID_404_);}
	.st438{fill:url(#SVGID_405_);}
	.st439{fill:url(#SVGID_406_);}
	.st440{fill:url(#SVGID_407_);}
	.st441{fill:url(#SVGID_408_);}
	.st442{fill:url(#SVGID_409_);}
	.st443{fill:url(#SVGID_410_);}
	.st444{fill:url(#SVGID_411_);}
	.st445{fill:url(#SVGID_412_);}
	.st446{fill:url(#SVGID_413_);}
	.st447{fill:url(#SVGID_414_);}
	.st448{fill:url(#SVGID_415_);}
	.st449{fill:url(#SVGID_416_);}
	.st450{fill:url(#SVGID_417_);}
	.st451{fill:url(#SVGID_418_);}
	.st452{fill:url(#SVGID_419_);}
	.st453{fill:url(#SVGID_420_);}
	.st454{fill:url(#SVGID_421_);}
	.st455{fill:url(#SVGID_422_);}
	.st456{fill:url(#SVGID_423_);}
	.st457{fill:url(#SVGID_424_);}
	.st458{fill:url(#SVGID_425_);}
	.st459{fill:url(#SVGID_426_);}
	.st460{fill:url(#SVGID_427_);}
	.st461{fill:url(#SVGID_428_);}
	.st462{fill:url(#SVGID_429_);}
	.st463{fill:url(#SVGID_430_);}
	.st464{fill:url(#SVGID_431_);}
	.st465{fill:url(#SVGID_432_);}
	.st466{fill:url(#SVGID_433_);}
	.st467{fill:url(#SVGID_434_);}
	.st468{fill:url(#SVGID_435_);}
	.st469{fill:url(#SVGID_436_);}
	.st470{fill:url(#SVGID_437_);}
	.st471{fill:url(#SVGID_438_);}
	.st472{fill:url(#SVGID_439_);}
	.st473{fill:url(#SVGID_440_);}
	.st474{fill:url(#SVGID_441_);}
	.st475{fill:url(#SVGID_442_);}
	.st476{fill:url(#SVGID_443_);}
	.st477{fill:url(#SVGID_444_);}
	.st478{fill:url(#SVGID_445_);}
	.st479{fill:url(#SVGID_446_);}
	.st480{fill:url(#SVGID_447_);}
	.st481{fill:url(#SVGID_448_);}
	.st482{fill:url(#SVGID_449_);}
	.st483{fill:url(#SVGID_450_);}
	.st484{fill:url(#SVGID_451_);}
	.st485{fill:url(#SVGID_452_);}
	.st486{fill:url(#SVGID_453_);}
	.st487{fill:url(#SVGID_454_);}
	.st488{fill:url(#SVGID_455_);}
	.st489{fill:url(#SVGID_456_);}
	.st490{fill:url(#SVGID_457_);}
	.st491{fill:url(#SVGID_458_);}
	.st492{fill:url(#SVGID_459_);}
	.st493{fill:url(#SVGID_460_);}
	.st494{fill:url(#SVGID_461_);}
	.st495{fill:url(#SVGID_462_);}
	.st496{fill:url(#SVGID_463_);}
	.st497{fill:url(#SVGID_464_);}
	.st498{fill:url(#SVGID_465_);}
	.st499{fill:url(#SVGID_466_);}
	.st500{fill:url(#SVGID_467_);}
	.st501{fill:url(#SVGID_468_);}
	.st502{fill:url(#SVGID_469_);}
	.st503{fill:url(#SVGID_470_);}
	.st504{fill:url(#SVGID_471_);}
	.st505{fill:url(#SVGID_472_);}
	.st506{fill:url(#SVGID_473_);}
	.st507{fill:url(#SVGID_474_);}
	.st508{fill:url(#SVGID_475_);}
	.st509{fill:url(#SVGID_476_);}
	.st510{fill:url(#SVGID_477_);}
	.st511{fill:url(#SVGID_478_);}
	.st512{fill:url(#SVGID_479_);}
	.st513{fill:url(#SVGID_480_);}
	.st514{fill:url(#SVGID_481_);}
	.st515{fill:url(#SVGID_482_);}
	.st516{fill:url(#SVGID_483_);}
	.st517{fill:url(#SVGID_484_);}
	.st518{fill:url(#SVGID_485_);}
	.st519{fill:url(#SVGID_486_);}
	.st520{fill:url(#SVGID_487_);}
	.st521{fill:url(#SVGID_488_);}
	.st522{fill:url(#SVGID_489_);}
	.st523{fill:url(#SVGID_490_);}
	.st524{fill:url(#SVGID_491_);}
	.st525{fill:url(#SVGID_492_);}
	.st526{fill:url(#SVGID_493_);}
	.st527{fill:url(#SVGID_494_);}
	.st528{fill:url(#SVGID_495_);}
	.st529{fill:url(#SVGID_496_);}
	.st530{fill:url(#SVGID_497_);}
	.st531{fill:url(#SVGID_498_);}
	.st532{fill:url(#SVGID_499_);}
	.st533{fill:url(#SVGID_500_);}
	.st534{fill:url(#SVGID_501_);}
	.st535{fill:url(#SVGID_502_);}
	.st536{fill:url(#SVGID_503_);}
	.st537{fill:url(#SVGID_504_);}
	.st538{fill:url(#SVGID_505_);}
	.st539{fill:url(#SVGID_506_);}
	.st540{fill:url(#SVGID_507_);}
	.st541{fill:url(#SVGID_508_);}
	.st542{fill:url(#SVGID_509_);}
	.st543{fill:url(#SVGID_510_);}
	.st544{fill:url(#SVGID_511_);}
	.st545{fill:url(#SVGID_512_);}
	.st546{fill:url(#SVGID_513_);}
	.st547{fill:url(#SVGID_514_);}
	.st548{fill:url(#SVGID_515_);}
	.st549{fill:url(#SVGID_516_);}
	.st550{fill:url(#SVGID_517_);}
	.st551{fill:url(#SVGID_518_);}
	.st552{fill:url(#SVGID_519_);}
	.st553{fill:url(#SVGID_520_);}
	.st554{fill:url(#SVGID_521_);}
	.st555{fill:url(#SVGID_522_);}
	.st556{fill:url(#SVGID_523_);}
	.st557{fill:url(#SVGID_524_);}
	.st558{fill:url(#SVGID_525_);}
	.st559{fill:url(#SVGID_526_);}
	.st560{fill:url(#SVGID_527_);}
	.st561{fill:url(#SVGID_528_);}
	.st562{fill:url(#SVGID_529_);}
	.st563{fill:url(#SVGID_530_);}
	.st564{fill:url(#SVGID_531_);}
	.st565{fill:url(#SVGID_532_);}
	.st566{fill:url(#SVGID_533_);}
	.st567{fill:url(#SVGID_534_);}
	.st568{fill:url(#SVGID_535_);}
	.st569{fill:url(#SVGID_536_);}
	.st570{fill:url(#SVGID_537_);}
	.st571{fill:url(#SVGID_538_);}
	.st572{fill:url(#SVGID_539_);}
	.st573{fill:url(#SVGID_540_);}
	.st574{fill:url(#SVGID_541_);}
	.st575{fill:url(#SVGID_542_);}
	.st576{fill:url(#SVGID_543_);}
	.st577{fill:url(#SVGID_544_);}
	.st578{fill:url(#SVGID_545_);}
	.st579{fill:url(#SVGID_546_);}
	.st580{fill:url(#SVGID_547_);}
	.st581{fill:url(#SVGID_548_);}
	.st582{fill:url(#SVGID_549_);}
	.st583{fill:url(#SVGID_550_);}
	.st584{fill:url(#SVGID_551_);}
	.st585{fill:url(#SVGID_552_);}
	.st586{fill:url(#SVGID_553_);}
	.st587{fill:url(#SVGID_554_);}
	.st588{fill:url(#SVGID_555_);}
	.st589{fill:url(#SVGID_556_);}
	.st590{fill:url(#SVGID_557_);}
	.st591{fill:url(#SVGID_558_);}
	.st592{fill:url(#SVGID_559_);}
	.st593{fill:url(#SVGID_560_);}
	.st594{fill:url(#SVGID_561_);}
	.st595{fill:url(#SVGID_562_);}
	.st596{fill:url(#SVGID_563_);}
	.st597{fill:url(#SVGID_564_);}
	.st598{fill:url(#SVGID_565_);}
	.st599{fill:url(#SVGID_566_);}
	.st600{fill:url(#SVGID_567_);}
	.st601{fill:url(#SVGID_568_);}
	.st602{fill:url(#SVGID_569_);}
	.st603{fill:url(#SVGID_570_);}
	.st604{fill:url(#SVGID_571_);}
	.st605{fill:url(#SVGID_572_);}
	.st606{fill:url(#SVGID_573_);}
	.st607{fill:url(#SVGID_574_);}
	.st608{fill:url(#SVGID_575_);}
	.st609{fill:url(#SVGID_576_);}
	.st610{fill:url(#SVGID_577_);}
	.st611{fill:url(#SVGID_578_);}
	.st612{fill:url(#SVGID_579_);}
	.st613{fill:url(#SVGID_580_);}
	.st614{fill:url(#SVGID_581_);}
	.st615{fill:url(#SVGID_582_);}
	.st616{fill:url(#SVGID_583_);}
	.st617{fill:url(#SVGID_584_);}
	.st618{fill:url(#SVGID_585_);}
	.st619{fill:url(#SVGID_586_);}
	.st620{fill:url(#SVGID_587_);}
	.st621{fill:url(#SVGID_588_);}
	.st622{fill:url(#SVGID_589_);}
	.st623{fill:url(#SVGID_590_);}
	.st624{fill:url(#SVGID_591_);}
	.st625{fill:url(#SVGID_592_);}
	.st626{fill:url(#SVGID_593_);}
	.st627{fill:url(#SVGID_594_);}
	.st628{fill:url(#SVGID_595_);}
	.st629{fill:url(#SVGID_596_);}
	.st630{fill:url(#SVGID_597_);}
	.st631{fill:url(#SVGID_598_);}
	.st632{fill:url(#SVGID_599_);}
	.st633{fill:url(#SVGID_600_);}
	.st634{fill:url(#SVGID_601_);}
	.st635{fill:url(#SVGID_602_);}
	.st636{fill:url(#SVGID_603_);}
	.st637{fill:url(#SVGID_604_);}
	.st638{fill:url(#SVGID_605_);}
	.st639{fill:url(#SVGID_606_);}
	.st640{fill:url(#SVGID_607_);}
	.st641{fill:url(#SVGID_608_);}
	.st642{fill:url(#SVGID_609_);}
	.st643{fill:url(#SVGID_610_);}
	.st644{fill:url(#SVGID_611_);}
	.st645{fill:url(#SVGID_612_);}
	.st646{fill:url(#SVGID_613_);}
	.st647{fill:url(#SVGID_614_);}
	.st648{fill:url(#SVGID_615_);}
	.st649{fill:url(#SVGID_616_);}
	.st650{fill:url(#SVGID_617_);}
	.st651{fill:url(#SVGID_618_);}
	.st652{fill:url(#SVGID_619_);}
	.st653{fill:url(#SVGID_620_);}
	.st654{fill:url(#SVGID_621_);}
	.st655{fill:url(#SVGID_622_);}
	.st656{fill:url(#SVGID_623_);}
	.st657{fill:url(#SVGID_624_);}
	.st658{fill:url(#SVGID_625_);}
	.st659{fill:url(#SVGID_626_);}
	.st660{fill:url(#SVGID_627_);}
	.st661{fill:url(#SVGID_628_);}
	.st662{fill:url(#SVGID_629_);}
	.st663{fill:url(#SVGID_630_);}
	.st664{fill:url(#SVGID_631_);}
	.st665{fill:url(#SVGID_632_);}
	.st666{fill:url(#SVGID_633_);}
	.st667{fill:url(#SVGID_634_);}
	.st668{fill:url(#SVGID_635_);}
	.st669{fill:url(#SVGID_636_);}
	.st670{fill:url(#SVGID_637_);}
	.st671{fill:url(#SVGID_638_);}
	.st672{fill:url(#SVGID_639_);}
	.st673{fill:url(#SVGID_640_);}
	.st674{fill:url(#SVGID_641_);}
	.st675{fill:url(#SVGID_642_);}
	.st676{fill:url(#SVGID_643_);}
	.st677{fill:url(#SVGID_644_);}
	.st678{fill:url(#SVGID_645_);}
	.st679{fill:url(#SVGID_646_);}
	.st680{fill:url(#SVGID_647_);}
	.st681{fill:url(#SVGID_648_);}
	.st682{fill:url(#SVGID_649_);}
	.st683{fill:url(#SVGID_650_);}
	.st684{fill:url(#SVGID_651_);}
	.st685{fill:url(#SVGID_652_);}
	.st686{fill:url(#SVGID_653_);}
	.st687{fill:url(#SVGID_654_);}
	.st688{fill:url(#SVGID_655_);}
	.st689{fill:url(#SVGID_656_);}
	.st690{fill:url(#SVGID_657_);}
	.st691{fill:url(#SVGID_658_);}
	.st692{fill:url(#SVGID_659_);}
	.st693{fill:url(#SVGID_660_);}
	.st694{fill:url(#SVGID_661_);}
	.st695{fill:url(#SVGID_662_);}
	.st696{fill:url(#SVGID_663_);}
	.st697{fill:url(#SVGID_664_);}
	.st698{fill:url(#SVGID_665_);}
	.st699{opacity:0.25;clip-path:url(#SVGID_385_);fill:url(#SVGID_666_);}
	.st700{opacity:0.25;clip-path:url(#SVGID_385_);fill:url(#SVGID_667_);}
	.st701{opacity:0.25;clip-path:url(#SVGID_385_);fill:url(#SVGID_668_);}
	.st702{opacity:0.25;fill:url(#SVGID_669_);}
	.st703{opacity:0.25;fill:url(#SVGID_670_);}
	.st704{opacity:0.25;fill:url(#SVGID_671_);}
	.st705{opacity:0.25;fill:url(#SVGID_672_);}
	.st706{opacity:0.25;fill:url(#SVGID_673_);}
	.st707{opacity:0.25;fill:url(#SVGID_674_);}
	.st708{opacity:0.25;clip-path:url(#SVGID_385_);fill:url(#SVGID_675_);}
	.st709{opacity:0.25;clip-path:url(#SVGID_385_);fill:url(#SVGID_676_);}
	.st710{opacity:0.25;clip-path:url(#SVGID_385_);fill:url(#SVGID_677_);}
	.st711{clip-path:url(#SVGID_385_);fill:url(#SVGID_678_);}
	.st712{clip-path:url(#SVGID_385_);fill:url(#SVGID_679_);}
	.st713{clip-path:url(#SVGID_385_);fill:url(#SVGID_680_);}
	.st714{clip-path:url(#SVGID_385_);fill:url(#SVGID_681_);}
	.st715{clip-path:url(#SVGID_385_);fill:url(#SVGID_682_);}
	.st716{clip-path:url(#SVGID_385_);fill:url(#SVGID_683_);}
	.st717{fill:url(#SVGID_684_);}
	.st718{fill:url(#SVGID_685_);}
	.st719{fill:url(#SVGID_686_);}
	.st720{fill:url(#SVGID_687_);}
	.st721{clip-path:url(#SVGID_690_);}
	.st722{fill:url(#SVGID_691_);}
	.st723{fill:url(#SVGID_692_);}
	.st724{fill:url(#SVGID_693_);}
	.st725{fill:url(#SVGID_694_);}
	.st726{fill:url(#SVGID_695_);}
	.st727{fill:url(#SVGID_696_);}
	.st728{fill:url(#SVGID_697_);}
	.st729{fill:url(#SVGID_698_);}
	.st730{fill:url(#SVGID_699_);}
	.st731{fill:url(#SVGID_700_);}
	.st732{fill:url(#SVGID_701_);}
	.st733{fill:url(#SVGID_702_);}
	.st734{fill:url(#SVGID_703_);}
	.st735{fill:url(#SVGID_704_);}
	.st736{fill:url(#SVGID_705_);}
	.st737{fill:url(#SVGID_706_);}
	.st738{fill:url(#SVGID_707_);}
	.st739{fill:url(#SVGID_708_);}
	.st740{fill:url(#SVGID_709_);}
	.st741{fill:url(#SVGID_710_);}
	.st742{fill:url(#SVGID_711_);}
	.st743{fill:url(#SVGID_712_);}
	.st744{fill:url(#SVGID_713_);}
	.st745{fill:url(#SVGID_714_);}
	.st746{fill:url(#SVGID_715_);}
	.st747{fill:url(#SVGID_716_);}
	.st748{fill:url(#SVGID_717_);}
	.st749{fill:url(#SVGID_718_);}
	.st750{fill:url(#SVGID_719_);}
	.st751{fill:url(#SVGID_720_);}
	.st752{fill:url(#SVGID_721_);}
	.st753{fill:url(#SVGID_722_);}
	.st754{fill:url(#SVGID_723_);}
	.st755{fill:url(#SVGID_724_);}
	.st756{fill:url(#SVGID_725_);}
	.st757{fill:url(#SVGID_726_);}
	.st758{fill:url(#SVGID_727_);}
	.st759{fill:url(#SVGID_728_);}
	.st760{fill:url(#SVGID_729_);}
	.st761{fill:url(#SVGID_730_);}
	.st762{fill:url(#SVGID_731_);}
	.st763{fill:url(#SVGID_732_);}
	.st764{fill:url(#SVGID_733_);}
	.st765{fill:url(#SVGID_734_);}
	.st766{fill:url(#SVGID_735_);}
	.st767{fill:url(#SVGID_736_);}
	.st768{fill:url(#SVGID_737_);}
	.st769{fill:url(#SVGID_738_);}
	.st770{fill:url(#SVGID_739_);}
	.st771{fill:url(#SVGID_740_);}
	.st772{fill:url(#SVGID_741_);}
	.st773{fill:url(#SVGID_742_);}
	.st774{fill:url(#SVGID_743_);}
	.st775{fill:url(#SVGID_744_);}
	.st776{opacity:0.7;fill:url(#SVGID_745_);}
	.st777{fill:url(#SVGID_746_);}
	.st778{fill-rule:evenodd;clip-rule:evenodd;fill:#FFFFFF;}
	.st779{opacity:0.7;fill:#FFFFFF;}
	.st780{opacity:0.7;fill-rule:evenodd;clip-rule:evenodd;fill:#FFFFFF;}
	.st781{opacity:0.19;fill:#FFFFFF;}
	.st782{opacity:0.9;fill:#FFFFFF;}
	.st783{fill:#6CA941;}
	.st784{fill:#F5D20F;}
	.st785{fill:#CCCCCC;}
	.st786{fill:none;stroke:#FFFFFF;stroke-miterlimit:10;}
	.st787{fill:none;stroke:#000000;stroke-width:3;stroke-miterlimit:10;}
	.st788{fill:none;stroke:#000000;stroke-width:3;stroke-linecap:round;stroke-miterlimit:10;}
	.st789{clip-path:url(#SVGID_748_);}
	.st790{clip-path:url(#SVGID_749_);fill:url(#SVGID_750_);}
	.st791{clip-path:url(#SVGID_749_);}
	.st792{opacity:0.25;clip-path:url(#SVGID_749_);fill:#FFFFFF;}
	.st793{opacity:0.25;clip-path:url(#SVGID_749_);fill:none;stroke:#FFFFFF;stroke-width:53.0263;stroke-miterlimit:10;}
	.st794{opacity:0.25;clip-path:url(#SVGID_749_);fill:none;stroke:#FFFFFF;stroke-width:14.7295;stroke-miterlimit:10;}
	.st795{clip-path:url(#SVGID_749_);fill:none;stroke:#FFFFFF;stroke-width:1.1047;stroke-miterlimit:10;}
	.st796{fill:none;stroke:#6CA941;stroke-miterlimit:10;}
	.st797{opacity:0.51;fill:#6CA941;}
	.st798{fill:#D9D9D9;}
	.st799{fill:none;stroke:#6CA941;stroke-width:2.0525;stroke-miterlimit:10;}
	.st800{fill:#FFFFFF;stroke:#6CA941;stroke-miterlimit:10;}
	.st801{fill:none;stroke:#6CA941;stroke-width:1.2383;stroke-miterlimit:10;}
	.st802{fill:none;stroke:#6CA941;stroke-width:0.5;stroke-miterlimit:10;}
	.st803{fill:#FF0000;}
</style>
<g id="Fondo">
</g>
<g id="Capa_2">
	<g>
		<g>
			<g>
				<g>
					<path class="st13" d="M91.3,98.6c-0.5,0-0.9-0.3-0.9-0.8c-0.1-0.5,0.3-1,0.8-1l11.2-1.2l1.2-1l1.3-1.5l0.9-1.9l0.2-2.9l-1.9-14
						c0,0,0-0.1,0-0.1l-0.2-8.5l-0.7-9.5c0-0.1,0-0.2,0-0.3l0.3-1.1c0.1-0.3,0.3-0.5,0.5-0.6l1.6-0.6c0.1,0,0.2-0.1,0.2-0.1l32.8-4
						l2.5-0.4c0.2,0,0.4,0,0.5,0.1l1.1,0.5c0.1,0.1,0.2,0.2,0.3,0.3l1.7,2.1l1.3,1l0.7,0.1l5.4-1l30.7-3.5c0.5-0.1,1,0.3,1,0.8
						c0.1,0.5-0.3,1-0.8,1l-30.6,3.4l-5.5,1.1c-0.1,0-0.2,0-0.3,0l-1.1-0.2c-0.2,0-0.3-0.1-0.4-0.2l-1.6-1.2c-0.1,0-0.1-0.1-0.2-0.2
						l-1.6-2l-0.7-0.3l-2.3,0.3l-32.7,4l-1.1,0.4l-0.2,0.6l0.7,9.3l0.2,8.5l1.9,14c0,0.1,0,0.1,0,0.2l-0.2,3.2c0,0.1,0,0.2-0.1,0.3
						l-1.1,2.2c0,0.1-0.1,0.2-0.1,0.2l-1.5,1.6c0,0-0.1,0.1-0.1,0.1l-1.5,1.2c-0.1,0.1-0.3,0.2-0.5,0.2l-11.4,1.2
						C91.4,98.6,91.3,98.6,91.3,98.6z"/>
				</g>
				<g>
					<path class="st13" d="M129.7,81.8c-0.5,0-0.8-0.3-0.9-0.8c-0.1-0.5,0.3-1,0.8-1l14.6-1.9c0.5-0.1,1,0.3,1,0.8
						c0.1,0.5-0.3,1-0.8,1l-14.6,1.9C129.8,81.8,129.7,81.8,129.7,81.8z"/>
				</g>
				<g>
					<path class="st13" d="M132.4,96.7h-2.5c-0.2,0-0.3,0-0.5-0.1l-1.5-0.9c-0.2-0.1-0.3-0.3-0.4-0.4l-0.5-1.3c0,0,0-0.1,0-0.1
						l-1.1-4.7l-0.5-1.6c0-0.1-0.1-0.3,0-0.5l0.3-1.7c0-0.1,0.1-0.2,0.1-0.3l0.9-1.6c0,0,0-0.1,0.1-0.1l2-2.7l-3.2-19.2
						c-0.1-0.5,0.3-1,0.8-1.1c0.5-0.1,1,0.3,1.1,0.8l3.2,19.6c0,0.2,0,0.5-0.2,0.7l-2.2,2.9l-0.8,1.4l-0.2,1.3l0.5,1.5l1.1,4.7
						l0.4,0.9l1,0.6h2.1l5.6-0.9c0.5-0.1,1,0.3,1.1,0.8c0.1,0.5-0.3,1-0.8,1l-5.7,0.9C132.5,96.7,132.4,96.7,132.4,96.7z"/>
				</g>
				<g>
					<path class="st13" d="M224.6,435.4c-0.1,0-0.2,0-0.3,0c-0.5-0.1-0.8-0.6-0.6-1.1l2.8-10l2.2-18.9l2.2-15.7l-6.8-0.8l-26.5,7.9
						l-0.2,0.2l-0.1,0.2l0.1,5.3c0,0.5-0.3,0.9-0.9,1c-0.5,0.1-0.9-0.3-1-0.8l0-0.6l-0.1-4.9c0-0.1,0-0.2,0-0.3l0.2-0.6
						c0.1-0.2,0.2-0.3,0.3-0.5l0.6-0.4c0.1-0.1,0.2-0.1,0.3-0.1l26.8-8c0.1,0,0.2,0,0.4,0l7.9,0.9c0.2,0,0.5,0.2,0.6,0.4
						c0.2,0.2,0.2,0.4,0.2,0.7l-2.4,16.6l-2.2,19c0,0,0,0.1,0,0.1l-2.8,10.1C225.3,435.1,225,435.4,224.6,435.4z"/>
				</g>
				<g>
					<path class="st13" d="M251.6,427.1c-0.2,0-0.3,0-0.4-0.1c-0.4-0.2-0.6-0.8-0.4-1.2l0.6-1l8.6-30.6l-0.2-5.2l-1.4-2.9l-2-2.6
						l-6.6-2.7l-7.3-1.1l-1.4,0.1l-1.1,0.5l-2.5,4.7c0,0.1-0.1,0.2-0.2,0.3l-4.8,4.2c-0.4,0.3-1,0.3-1.3-0.1c-0.3-0.4-0.3-1,0.1-1.3
						l4.7-4.1l2.6-4.8c0.1-0.2,0.2-0.3,0.4-0.4l1.5-0.7c0.1-0.1,0.2-0.1,0.4-0.1l1.7-0.1c0.1,0,0.1,0,0.2,0l7.4,1.1
						c0.1,0,0.1,0,0.2,0.1l6.9,2.8c0.2,0.1,0.3,0.2,0.4,0.3l2.2,2.9c0,0,0.1,0.1,0.1,0.2l1.5,3.2c0.1,0.1,0.1,0.2,0.1,0.4l0.3,5.5
						c0,0.1,0,0.2,0,0.3l-8.7,30.8c0,0.1,0,0.1-0.1,0.2l-0.6,1.1C252.3,426.9,251.9,427.1,251.6,427.1z"/>
				</g>
				<g>
					<path class="st13" d="M311.5,388.9c-0.4,0-0.7-0.2-0.8-0.6l-3.1-7.3l-0.3-0.3l-0.2-0.1l-13.3,3.5c-0.1,0-0.3,0-0.4,0l-4.4-1
						c-0.1,0-0.2-0.1-0.3-0.2l-3.1-2.3c-0.1-0.1-0.1-0.1-0.2-0.2l-3.3-4.4c-0.3-0.4-0.2-1,0.2-1.3c0.4-0.3,1-0.2,1.3,0.2l3.2,4.3
						l2.8,2.1l4,0.9l13.4-3.5c0.2-0.1,0.4,0,0.6,0l0.6,0.2c0.1,0,0.2,0.1,0.2,0.2l0.5,0.5c0.1,0.1,0.2,0.2,0.2,0.3l3.2,7.5
						c0.2,0.5,0,1-0.5,1.2C311.7,388.9,311.6,388.9,311.5,388.9z"/>
				</g>
				<g>
					<path class="st13" d="M276.9,401.4c-0.4,0-0.7-0.2-0.9-0.6c-0.2-0.5,0.1-1,0.5-1.2l24.4-8.9l10.1-3.6l11.8-4.9
						c0.5-0.2,1,0,1.2,0.5c0.2,0.5,0,1-0.5,1.2l-11.8,4.9l-10.2,3.7l-24.4,8.9C277.1,401.4,277,401.4,276.9,401.4z"/>
				</g>
				<g>
					<path class="st13" d="M298,288.2c-0.4,0-0.7-0.2-0.9-0.6c-0.2-0.5,0.1-1,0.6-1.2l23.8-8.7l-0.3-1.1l-2.1-6.4
						c-0.2-0.5,0.1-1,0.6-1.2c0.5-0.2,1,0.1,1.2,0.6l2.1,6.4l0.6,2c0.1,0.5-0.1,0.9-0.6,1.1l-24.6,9
						C298.2,288.2,298.1,288.2,298,288.2z"/>
				</g>
				<g>
					<path class="st13" d="M259.6,222.8c-0.3,0-0.7-0.2-0.8-0.5l-14.9-30.9c-0.2-0.5,0-1,0.4-1.2c0.5-0.2,1,0,1.2,0.4l14.9,30.9
						c0.2,0.5,0,1-0.4,1.2C259.9,222.7,259.7,222.8,259.6,222.8z"/>
				</g>
				<g>
					<path class="st13" d="M294.8,279.2c-0.4,0-0.7-0.2-0.9-0.6c-0.2-0.5,0.1-1,0.6-1.2l25.1-8.4c0.5-0.2,1,0.1,1.2,0.6
						c0.2,0.5-0.1,1-0.6,1.2l-25.1,8.4C295,279.2,294.9,279.2,294.8,279.2z"/>
				</g>
				<g>
					<path class="st13" d="M324.7,339.5c-0.4,0-0.7-0.2-0.9-0.6l-7.9-20.3c-0.2-0.5,0-1,0.5-1.2l19.2-7.6c0.5-0.2,1,0,1.2,0.5
						c0.2,0.5,0,1-0.5,1.2l-18.4,7.2l7.6,19.4c0.2,0.5,0,1-0.5,1.2C325,339.5,324.9,339.5,324.7,339.5z"/>
				</g>
				<g>
					<path class="st13" d="M266.1,184.1c-0.3,0-0.6-0.2-0.8-0.5l-5.8-10.5l-7.1,3.7c-0.5,0.2-1,0.1-1.2-0.4c-0.2-0.5-0.1-1,0.4-1.2
						l7.9-4.1c0.4-0.2,1-0.1,1.2,0.4l6.2,11.3c0.2,0.4,0.1,1-0.4,1.2C266.4,184.1,266.2,184.1,266.1,184.1z"/>
				</g>
				<g>
					<path class="st13" d="M286.1,204.7c-0.3,0-0.7-0.2-0.8-0.5l-1.3-2.6l-3.4,2c-0.2,0.1-0.5,0.2-0.8,0.1l-3.9-1.4
						c-0.1,0-0.2-0.1-0.3-0.2l-1.5-1.4c-0.1-0.1-0.2-0.2-0.2-0.4l-0.9-2.3l-1.9-3.5c-0.2-0.4-0.1-1,0.4-1.2c0.4-0.2,1-0.1,1.2,0.4
						l1.9,3.5c0,0,0,0.1,0.1,0.1l0.8,2.2l1.2,1.1l3.3,1.2l3.9-2.3c0.2-0.1,0.5-0.2,0.7-0.1c0.2,0.1,0.4,0.2,0.6,0.5l1.7,3.5
						c0.2,0.5,0,1-0.4,1.2C286.4,204.7,286.2,204.7,286.1,204.7z"/>
				</g>
				<g>
					<path class="st13" d="M278.4,328.9c-0.4,0-0.7-0.2-0.9-0.6l-14.1-41.5c-0.2-0.5,0.1-1,0.6-1.2l29.7-10.9c0.5-0.2,1,0.1,1.2,0.5
						c0.2,0.5-0.1,1-0.5,1.2l-28.8,10.6l13.8,40.6c0.2,0.5-0.1,1-0.6,1.2C278.6,328.9,278.5,328.9,278.4,328.9z"/>
				</g>
				<g>
					<path class="st13" d="M290,292.5c-0.4,0-0.7-0.2-0.9-0.6l-4.8-12.8c-0.2-0.5,0.1-1,0.5-1.2c0.5-0.2,1,0.1,1.2,0.5l4.4,12
						l7.6-2.8c0.5-0.2,1,0.1,1.2,0.5c0.2,0.5-0.1,1-0.5,1.2l-8.5,3.1C290.2,292.5,290.1,292.5,290,292.5z"/>
				</g>
				<g>
					<path class="st13" d="M288.6,414.9h-1.7c-0.1,0-0.3,0-0.4-0.1l-1.3-0.6c-0.2-0.1-0.4-0.3-0.5-0.6L282,404c0-0.1,0-0.2,0-0.3
						l0-1.1c0-0.3,0.1-0.5,0.3-0.7l1.8-1.5c0.1-0.1,0.2-0.1,0.3-0.1l40.2-16.2c0.5-0.2,1,0,1.2,0.5c0.2,0.5,0,1-0.5,1.2l-40,16.1
						l-1.4,1.1l0,0.6l2.6,9l0.7,0.4h1.3l15.1-6.3c0.5-0.2,1,0,1.2,0.5c0.2,0.5,0,1-0.5,1.2l-15.3,6.4
						C288.8,414.8,288.7,414.9,288.6,414.9z"/>
				</g>
				<g>
					<path class="st13" d="M182.2,75.2C182.2,75.2,182.2,75.2,182.2,75.2l-3.1,0l-3.1-0.2c-0.1,0-0.2,0-0.3-0.1l-1.4-0.5
						c-0.5-0.2-0.7-0.7-0.5-1.2c0.2-0.5,0.7-0.7,1.2-0.5l1.3,0.5l3,0.1l3,0l5.7-1.1l3.2-1.2l2.5-1c0.5-0.2,1,0,1.2,0.5
						c0.2,0.5,0,1-0.5,1.2l-2.6,1l-3.3,1.2c0,0-0.1,0-0.1,0l-5.8,1.1C182.3,75.2,182.2,75.2,182.2,75.2z"/>
				</g>
				<g>
					<path class="st13" d="M156.8,78c-0.4,0-0.8-0.3-0.9-0.8c-0.1-0.5,0.3-1,0.8-1l14.9-2.2l2.5-1.2c0.5-0.2,1,0,1.2,0.4
						c0.2,0.5,0,1-0.4,1.2l-2.7,1.3c-0.1,0-0.2,0.1-0.3,0.1L156.9,78C156.9,78,156.8,78,156.8,78z"/>
				</g>
				<g>
					<path class="st13" d="M107,89.2c-0.5,0-0.8-0.3-0.9-0.8c-0.1-0.5,0.3-1,0.8-1l19.6-2.8c0.5-0.1,1,0.3,1,0.8
						c0.1,0.5-0.3,1-0.8,1l-19.6,2.8C107.1,89.2,107,89.2,107,89.2z"/>
				</g>
				<g>
					<path class="st13" d="M174.5,74.5c-0.3,0-0.5-0.1-0.7-0.4l-1-1.3c-0.1-0.1-0.1-0.1-0.1-0.2l-0.5-1.3l-2.8-5.6
						c0-0.1-0.1-0.2-0.1-0.2l-2.6-13.9c-0.1-0.5,0.2-1,0.7-1.1c0.5-0.1,1,0.2,1.1,0.7l2.5,13.7l2.8,5.6c0,0,0,0.1,0,0.1l0.4,1.2
						l0.9,1.2c0.3,0.4,0.2,1-0.2,1.3C174.9,74.4,174.7,74.5,174.5,74.5z"/>
				</g>
				<g>
					<path class="st13" d="M287,258.4c-0.8,0-1.5-0.5-1.8-1.3c-0.4-1,0.1-2.1,1.1-2.5l16.8-6.2l18.2-7.6l22.5-8.9
						c1-0.4,2.1,0.1,2.5,1.1c0.4,1-0.1,2.1-1.1,2.5l-22.4,8.8l-18.2,7.6c0,0-0.1,0-0.1,0l-16.9,6.2
						C287.5,258.3,287.3,258.4,287,258.4z"/>
				</g>
				<g>
					<path class="st13" d="M281.5,358.7c-0.2,0-0.5,0-0.7-0.1c-1-0.4-1.4-1.5-1-2.5l0-0.1l-3.9-9.9l-5.3-15c-0.4-1,0.2-2.1,1.2-2.4
						c1-0.4,2.1,0.2,2.4,1.2l5.2,14.9l4.2,10.6c0.2,0.5,0.2,1,0,1.4l-0.3,0.8C283,358.2,282.3,358.7,281.5,358.7z"/>
				</g>
				<g>
					<path class="st13" d="M40.4,444.6c-0.5,0-1-0.2-1.4-0.6c-0.7-0.8-0.7-2,0.1-2.7l23.1-20.9c0,0,0.1-0.1,0.1-0.1L95,395l0.1-0.2
						l0-0.5l-0.5-1.6l-1.4-4.2c-0.3-1,0.2-2.1,1.2-2.4c1-0.3,2.1,0.2,2.4,1.2l1.4,4.3l0.6,1.9c0.1,0.2,0.1,0.4,0.1,0.6l0,1.2
						c0,0.3-0.1,0.6-0.2,0.8l-0.5,1c-0.1,0.3-0.3,0.5-0.6,0.7l-32.9,25.5l-23,20.9C41.4,444.5,40.9,444.6,40.4,444.6z"/>
				</g>
				<g>
					<path class="st13" d="M108.2,308.1c-1,0-1.8-0.8-1.9-1.8c-0.1-1.1,0.7-2,1.8-2l7.3-0.5l28.6-4.1c1-0.2,2,0.6,2.2,1.6
						c0.2,1-0.6,2-1.6,2.2l-28.7,4.2c0,0-0.1,0-0.1,0l-7.4,0.5C108.3,308.1,108.3,308.1,108.2,308.1z"/>
				</g>
				<g>
					<path class="st13" d="M109.2,313.4C109.2,313.4,109.1,313.4,109.2,313.4l-12.3-0.5l-15.2-1.1l-29-2.7c-1.1-0.1-1.8-1-1.7-2.1
						c0.1-1.1,1-1.8,2.1-1.7l29,2.7l15.1,1.1l12.2,0.5c1.1,0,1.9,0.9,1.8,2C111.1,312.6,110.2,313.4,109.2,313.4z"/>
				</g>
				<g>
					<path class="st13" d="M116.4,341.3c-0.9,0-1.6-0.6-1.9-1.4l-7.2-27.9c0,0,0-0.1,0-0.1l-0.9-5.2l-5.7-24.8
						c-0.2-1,0.4-2.1,1.4-2.3c1-0.2,2.1,0.4,2.3,1.4l5.7,24.8c0,0,0,0.1,0,0.1l0.9,5.2l0.8,3.1l6.4,24.7c0.3,1-0.3,2.1-1.4,2.3
						C116.8,341.2,116.6,341.3,116.4,341.3z"/>
				</g>
				<g>
					<path class="st13" d="M183.3,376.5c0,0-0.1,0-0.1,0l-2.8-0.2c-0.3,0-0.6-0.1-0.9-0.3l-1.9-1.2c-0.3-0.2-0.6-0.5-0.7-0.9
						l-1.4-3.2c-0.1-0.2-0.2-0.5-0.2-0.8l0-2.1c0-0.3,0.1-0.7,0.3-1l2.6-4.2c0.1-0.2,0.2-0.3,0.4-0.4l2.3-2.1
						c0.1-0.1,0.1-0.1,0.2-0.2l4-2.7c0.1-0.1,0.2-0.1,0.3-0.2l4.4-1.9c0.1,0,0.1,0,0.2-0.1l3.9-1.3l38.6-12.4l39.1-12.8l5.9-2.4
						l18.5-6.8c1-0.4,2.1,0.1,2.5,1.1c0.4,1-0.1,2.1-1.1,2.5l-18.4,6.8l-5.9,2.4c0,0-0.1,0-0.1,0L233.8,345l-42.4,13.6l-4.2,1.8
						l-3.8,2.6l-2,1.8l-2.2,3.5l0,1.2l1,2.3l1,0.6l2.1,0.2l7.4-0.9l7.7-1.8c1-0.2,2.1,0.4,2.3,1.4c0.2,1-0.4,2.1-1.4,2.3l-7.8,1.8
						c-0.1,0-0.1,0-0.2,0l-7.7,0.9C183.4,376.5,183.3,376.5,183.3,376.5z"/>
				</g>
				<g>
					<path class="st13" d="M227.3,237.6c-0.6,0-1.3-0.3-1.6-0.9l-5.7-9.1c0,0-0.1-0.1-0.1-0.2l-3.8-7.4c0-0.1-0.1-0.1-0.1-0.2
						l-6.2-15.8l-4.7-10.8l-5.2-12.2l-8.4-16.8c0-0.1-0.1-0.2-0.1-0.3l-1.6-4.7c-0.3-1,0.2-2.1,1.2-2.4c1-0.3,2.1,0.2,2.4,1.2
						l1.5,4.6l8.4,16.7c0,0,0,0.1,0.1,0.1l5.2,12.2l4.7,10.8l6.2,15.8l3.7,7.2l5.7,9c0.6,0.9,0.3,2.1-0.6,2.6
						C228.1,237.5,227.7,237.6,227.3,237.6z"/>
				</g>
				<g>
					<path class="st13" d="M206.9,194.5c-0.7,0-1.4-0.4-1.7-1c-0.5-0.9-0.1-2.1,0.8-2.6l22.4-11.7l19.8-10.1
						c0.9-0.5,2.1-0.1,2.6,0.8c0.5,0.9,0.1,2.1-0.8,2.6l-19.8,10l-22.4,11.7C207.5,194.4,207.2,194.5,206.9,194.5z"/>
				</g>
				<g>
					<path class="st13" d="M165.4,155.9c-0.8,0-1.6-0.5-1.8-1.3l-11-35c-0.1-0.3-0.1-0.6-0.1-0.8l0.2-1.6c0-0.3,0.2-0.7,0.4-0.9
						l1.2-1.4c0.2-0.2,0.4-0.4,0.7-0.6l10.4-4.5l39-19.3c1-0.5,2.1-0.1,2.6,0.9c0.5,1,0.1,2.1-0.9,2.6l-39.1,19.3c0,0-0.1,0-0.1,0
						l-10.1,4.3l-0.5,0.6l-0.1,0.6l10.9,34.6c0.3,1-0.2,2.1-1.3,2.4C165.7,155.9,165.6,155.9,165.4,155.9z"/>
				</g>
				<g>
					<path class="st13" d="M173.7,194.5c-0.7,0-1.4-0.4-1.8-1.2c-0.4-1,0-2.1,1-2.5l28-12.2c1-0.4,2.1,0,2.5,1c0.4,1,0,2.1-1,2.5
						l-28,12.2C174.3,194.4,174,194.5,173.7,194.5z"/>
				</g>
				<g>
					<path class="st13" d="M173.5,212.7c-1,0-1.9-0.8-1.9-1.8c0-1.1,0.8-1.9,1.8-2l16.8-0.6l5.8-1.1l4.9-1.6l10-4
						c1-0.4,2.1,0.1,2.5,1.1c0.4,1-0.1,2.1-1.1,2.5l-10.1,4c0,0-0.1,0-0.1,0l-5.1,1.6c-0.1,0-0.2,0-0.2,0.1l-6.1,1.1
						c-0.1,0-0.2,0-0.3,0L173.5,212.7C173.5,212.7,173.5,212.7,173.5,212.7z"/>
				</g>
				<g>
					<path class="st13" d="M174,249.2c-1,0-1.9-0.8-1.9-1.9c0-1.1,0.8-1.9,1.9-1.9l13.2-0.1l15-1l18.1-7l6.2-3.2
						c0.9-0.5,2.1-0.1,2.6,0.8c0.5,0.9,0.1,2.1-0.8,2.6l-6.3,3.3c-0.1,0-0.1,0.1-0.2,0.1l-18.5,7.2c-0.2,0.1-0.4,0.1-0.6,0.1
						l-15.3,1.1c0,0-0.1,0-0.1,0L174,249.2C174,249.2,174,249.2,174,249.2z"/>
				</g>
				<g>
					<path class="st13" d="M173.5,230.7c-1,0-1.9-0.8-1.9-1.9c0-1.1,0.8-1.9,1.9-2l20.5-0.5l23.2-8.9c1-0.4,2.1,0.1,2.5,1.1
						c0.4,1-0.1,2.1-1.1,2.5l-23.6,9c-0.2,0.1-0.4,0.1-0.6,0.1L173.5,230.7C173.5,230.7,173.5,230.7,173.5,230.7z"/>
				</g>
				<g>
					<path class="st13" d="M276.5,160.1c-0.2,0-0.3,0-0.5-0.1l-0.9-0.2c-0.4-0.1-0.7-0.3-1-0.6l-0.8-0.9c-0.1-0.1-0.2-0.3-0.3-0.5
						l-3.7-7.7l-5.7-10.6L251,114.9l-21.3-40.5c-0.5-0.9-0.1-2.1,0.8-2.6c0.9-0.5,2.1-0.1,2.6,0.8l21.3,40.5l12.7,24.6l5.7,10.6
						c0,0,0,0.1,0,0.1l3.6,7.5l0.2,0.2l0.6-0.2l30.3-14.8c1-0.5,2.1-0.1,2.6,0.9c0.5,1,0.1,2.1-0.9,2.6l-30.4,14.8
						c-0.1,0-0.2,0.1-0.2,0.1l-1.3,0.4C276.9,160,276.7,160.1,276.5,160.1z"/>
				</g>
				<g>
					<path class="st13" d="M169.9,176.5c-0.7,0-1.4-0.4-1.7-1.1c-0.5-1,0-2.1,0.9-2.6l23.4-11c1-0.5,2.1,0,2.6,0.9
						c0.5,1,0,2.1-0.9,2.6l-23.4,11C170.4,176.4,170.1,176.5,169.9,176.5z"/>
				</g>
				<g>
					<path class="st13" d="M204,91.6c-0.6,0-1.3-0.3-1.6-0.9c-0.6-0.9-0.3-2.1,0.6-2.6l8-5l15-9c0,0,0.1,0,0.1-0.1l4.3-2.2
						l15.8-11.3c0.9-0.6,2.1-0.4,2.7,0.4c0.6,0.9,0.4,2.1-0.4,2.7l-15.9,11.4c-0.1,0.1-0.2,0.1-0.3,0.2l-4.4,2.2l-14.9,9l-8,4.9
						C204.7,91.5,204.3,91.6,204,91.6z"/>
				</g>
				<g>
					<path class="st13" d="M174,253.8C174,253.8,174,253.8,174,253.8c-1.1,0-1.9-0.9-1.9-1.9l0-4.7l-0.5-18.5l-0.1-18l0.3-18
						L168,175c-0.2-1,0.4-2.1,1.5-2.3c1-0.2,2.1,0.4,2.3,1.5l3.9,18c0,0.1,0,0.3,0,0.4l-0.3,18.2l0.1,17.9l0.5,18.5l0,4.7
						C175.9,253,175,253.8,174,253.8z"/>
				</g>
				<g>
					<path class="st13" d="M143.8,258.4C143.8,258.4,143.8,258.4,143.8,258.4c-1.1,0-1.9-0.9-1.9-2l0.9-40.3l-0.7-14.7l-0.8-12.4
						l-0.8-3.1l-1.5-4.1l-4.6-8.7l-1.7-2l-3.6-3.7l-13.2-11.6c0,0,0,0-0.1-0.1l-15.3-14.6c-0.1-0.1-0.2-0.2-0.3-0.4L93.4,130l-4-5
						l-8.9-9.6l-7.5-8.3c-0.1-0.1-0.2-0.3-0.3-0.4l-2.7-5.2L66.4,96c-0.2-0.4-0.3-0.8-0.3-1.2l1-12.2c0-0.1,0-0.1,0-0.2l2.1-12.2
						c0,0,0-0.1,0-0.1l1.4-6.3c0-0.1,0.1-0.3,0.1-0.4l2.1-4.7c0.4-1,1.6-1.4,2.5-1c1,0.4,1.4,1.6,1,2.5l-2,4.5l-1.3,6.1l-2.1,12.1
						l-0.9,11.5l3.3,5.1c0,0.1,0.1,0.1,0.1,0.2l2.6,5.1l7.4,8.1l9,9.6c0,0,0.1,0.1,0.1,0.1l4.1,5.1c0,0.1,0.1,0.1,0.1,0.2l6.8,10.6
						l15.1,14.4l13.3,11.6c0,0,0.1,0.1,0.1,0.1l3.7,3.8c0,0,0.1,0.1,0.1,0.1l1.8,2.3c0.1,0.1,0.1,0.2,0.2,0.3l4.8,8.9
						c0,0.1,0.1,0.1,0.1,0.2l1.6,4.3c0,0.1,0.1,0.1,0.1,0.2l0.8,3.4c0,0.1,0,0.2,0.1,0.3l0.8,12.6l0.7,14.8c0,0,0,0.1,0,0.1
						l-0.9,40.3C145.7,257.6,144.8,258.4,143.8,258.4z"/>
				</g>
				<g>
					<path class="st13" d="M146.9,151.8c-0.7,0-1.3-0.3-1.7-1l-5.8-10.1l-2.5-2.5l-3.1-2.5l-11.6-4.7l-19-5.2l-5.9-1.2l-2.9,0.2
						l-3,0.7l-8.7,3.4l-5.1,1.8l-14,4.8c-1,0.3-2.1-0.2-2.4-1.2c-0.3-1,0.2-2.1,1.2-2.4l19-6.5l8.8-3.4c0.1,0,0.2-0.1,0.2-0.1
						l3.2-0.8c0.1,0,0.2,0,0.3,0l3.3-0.2c0.2,0,0.3,0,0.5,0l6.2,1.2c0,0,0.1,0,0.1,0l19.2,5.2c0.1,0,0.1,0,0.2,0.1l12,4.9
						c0.2,0.1,0.3,0.2,0.5,0.3l3.4,2.7c0.1,0,0.1,0.1,0.2,0.1l2.8,2.8c0.1,0.1,0.2,0.3,0.3,0.4l5.9,10.3c0.5,0.9,0.2,2.1-0.7,2.6
						C147.6,151.7,147.2,151.8,146.9,151.8z"/>
				</g>
				<g>
					<path class="st13" d="M106.9,279.7c-0.8,0-1.5-0.5-1.8-1.3l-0.5-1.5c0-0.1,0-0.1-0.1-0.2l-3.3-13.9c0-0.1,0-0.1,0-0.2l-0.7-5.8
						c0,0,0-0.1,0-0.1L99.9,244l-0.6-13.4l-1-10.3l-1.6-9.6L94,197.7l-0.3-0.4l-0.4-0.3c-0.9-0.5-1.2-1.7-0.7-2.6
						c0.5-0.9,1.7-1.2,2.6-0.7l0.8,0.4c0.2,0.1,0.4,0.3,0.6,0.5l0.8,1.1c0.2,0.2,0.3,0.5,0.3,0.8l0.5,2.7l2.2,10.7l1.6,9.8
						c0,0,0,0.1,0,0.1l1,10.5c0,0,0,0.1,0,0.1l0.6,13.4l0.7,12.6l0.7,5.6l3.3,13.7l0.5,1.4c0.3,1-0.2,2.1-1.2,2.4
						C107.3,279.6,107.1,279.7,106.9,279.7z"/>
				</g>
				<g>
					<path class="st13" d="M69.1,152.2c-0.9,0-1.7-0.6-1.9-1.5c-0.2-1,0.4-2.1,1.5-2.3l14.4-3.1l13.2-3.1l4.3-4
						c0.8-0.7,2-0.7,2.7,0.1c0.7,0.8,0.7,2-0.1,2.7l-4.6,4.3c-0.2,0.2-0.5,0.4-0.9,0.5L84,149.1l-14.4,3.1
						C69.4,152.2,69.3,152.2,69.1,152.2z"/>
				</g>
				<g>
					<path class="st13" d="M125,265.3c-0.9,0-1.7-0.7-1.9-1.6l-0.4-2.2c0-0.1,0-0.1,0-0.2l-0.6-6.2l-2-36.1l-8.2-22l-8.5-18.5
						c0-0.1,0-0.1-0.1-0.2l-5.2-15c-0.3-1,0.2-2.1,1.2-2.4c1-0.3,2.1,0.2,2.4,1.2l5.1,14.9l8.5,18.5c0,0,0,0.1,0.1,0.1l8.3,22.3
						c0.1,0.2,0.1,0.4,0.1,0.6l2,36.3l0.5,6l0.4,2.1c0.2,1-0.5,2-1.5,2.2C125.2,265.3,125.1,265.3,125,265.3z"/>
				</g>
				<g>
					<path class="st13" d="M70.1,234.8C70.1,234.8,70.1,234.7,70.1,234.8l-13.4-0.5c0,0-0.1,0-0.1,0l-29.2-2.4
						c-1.1-0.1-1.8-1-1.8-2.1c0.1-1.1,1-1.8,2.1-1.8l29.2,2.4l12.9,0.5l9-3.8l4.6-2.9c0.1-0.1,0.2-0.1,0.4-0.2l15.8-5.7
						c0.2-0.1,0.4-0.1,0.5-0.1l21.7-1.4l22.7-2.5c1-0.1,2,0.6,2.1,1.7c0.1,1.1-0.6,2-1.7,2.1l-22.7,2.5c0,0-0.1,0-0.1,0l-21.5,1.4
						l-15.4,5.6l-4.5,2.9c-0.1,0.1-0.2,0.1-0.3,0.1l-9.6,4.1C70.6,234.7,70.4,234.8,70.1,234.8z"/>
				</g>
				<g>
					<path class="st13" d="M87.2,199.3c-0.7,0-1.4-0.4-1.8-1.1l-5.3-12l-0.6-0.8c-0.1-0.1-0.2-0.3-0.2-0.4l-2.3-6.6L72.2,164
						l-4.8-12.9l-1.1-2.3c0-0.1-0.1-0.1-0.1-0.2l-5-14.2l-6.7-18.7c0-0.1,0-0.1-0.1-0.2l-0.5-2c0-0.1-0.1-0.2-0.1-0.4l-0.1-1.9
						c0-0.1,0-0.2,0-0.2l0.1-2c0-0.1,0-0.1,0-0.2l0.4-2.4c0-0.1,0-0.1,0-0.2l0.7-2.6c0-0.1,0-0.1,0.1-0.2l0.8-2.1
						c0-0.1,0.1-0.2,0.1-0.2l1.2-2.1c0.5-0.9,1.7-1.2,2.6-0.7c0.9,0.5,1.2,1.7,0.7,2.6l-1.1,2l-0.8,1.9L58,107l-0.4,2.2l-0.1,1.8
						l0.1,1.6l0.5,1.8l6.7,18.7l4.9,14.1l1.1,2.3c0,0.1,0,0.1,0.1,0.2l4.9,13l4.9,14.4l2.2,6.3l0.5,0.8c0.1,0.1,0.1,0.2,0.2,0.3
						l4.7,10.6l5.5-1.5c1-0.3,2.1,0.3,2.4,1.3c0.3,1-0.3,2.1-1.3,2.4l-7.1,2C87.6,199.2,87.4,199.3,87.2,199.3z"/>
				</g>
				<g>
					<path class="st13" d="M134.8,371.7c-0.3,0-0.6-0.1-0.9-0.2c-0.5-0.2-0.8-0.7-1-1.2l-0.6-2.2L118.6,339c-0.5-1,0-2.1,0.9-2.6
						c1-0.5,2.1,0,2.6,0.9l13.8,29.3c0,0.1,0.1,0.2,0.1,0.3l0.1,0.3l0.1,0l8.1-4.3c0.9-0.5,2.1-0.1,2.6,0.8c0.5,0.9,0.1,2.1-0.8,2.6
						l-8.2,4.4c-0.1,0-0.2,0.1-0.3,0.1l-2.2,0.8C135.2,371.7,135,371.7,134.8,371.7z"/>
				</g>
				<g>
					<path class="st13" d="M81.9,187.1c-0.8,0-1.6-0.5-1.8-1.3c-0.3-1,0.2-2.1,1.2-2.4l23.3-7.4c1-0.3,2.1,0.2,2.4,1.2
						c0.3,1-0.2,2.1-1.2,2.4L82.5,187C82.3,187.1,82.1,187.1,81.9,187.1z"/>
				</g>
				<g>
					<path class="st13" d="M78.9,248.1C78.8,248.1,78.8,248.1,78.9,248.1l-23.5-1c-1.1,0-1.9-0.9-1.8-2c0-1.1,0.9-1.9,2-1.8l23.3,1
						l22.8-2.2c1.1-0.1,2,0.7,2.1,1.7c0.1,1.1-0.7,2-1.7,2.1L79,248C79,248,78.9,248.1,78.9,248.1z"/>
				</g>
				<g>
					<path class="st13" d="M54,265.1c-1.1,0-1.9-0.8-1.9-1.9c0-1.1,0.8-1.9,1.9-1.9l27.4-0.2l21.7-0.6c1.1,0,1.9,0.8,2,1.9
						c0,1.1-0.8,1.9-1.9,2l-21.8,0.6L54,265.1C54,265.1,54,265.1,54,265.1z"/>
				</g>
				<g>
					<path class="st13" d="M222.8,244.8c-0.7,0-1.5-0.4-1.8-1.2l-1.7-4c-0.4-1,0-2.1,1-2.5c1-0.4,2.1,0,2.5,1l1.7,4
						c0.4,1,0,2.1-1,2.5C223.3,244.8,223,244.8,222.8,244.8z"/>
				</g>
				<g>
					<path class="st13" d="M187.4,252.9c-1,0-1.9-0.8-1.9-1.9l-0.1-3.8c0-1.1,0.8-1.9,1.9-2c1.1,0,1.9,0.8,2,1.9l0.1,3.8
						C189.4,251.9,188.6,252.8,187.4,252.9C187.5,252.9,187.5,252.9,187.4,252.9z"/>
				</g>
				<g>
					<path class="st13" d="M226.3,131.7c-0.7,0-1.3-0.3-1.6-0.9c-0.5-0.9-0.2-2.1,0.7-2.6l26.4-15.8c0.9-0.5,2.1-0.2,2.6,0.7
						c0.5,0.9,0.2,2.1-0.7,2.6l-26.4,15.8C226.9,131.6,226.6,131.7,226.3,131.7z"/>
				</g>
				<g>
					<path class="st13" d="M296.8,323.1c-0.9,0-1.7-0.7-1.9-1.6c-0.2-1,0.5-2,1.6-2.2l2.7-0.4l10.1-2.1c1-0.2,2.1,0.4,2.3,1.5
						c0.2,1-0.4,2.1-1.5,2.3l-10.1,2.2c0,0-0.1,0-0.1,0l-2.8,0.5C297,323.1,296.9,323.1,296.8,323.1z"/>
				</g>
				<g>
					<path class="st13" d="M204.3,251.1c-0.7,0-1.4-0.4-1.7-1l-1.7-3.1c-0.5-0.9-0.1-2.1,0.8-2.6c0.9-0.5,2.1-0.1,2.6,0.8l1.7,3.1
						c0.5,0.9,0.1,2.1-0.8,2.6C204.9,251.1,204.6,251.1,204.3,251.1z"/>
				</g>
				<g>
					<path class="st13" d="M73.8,405.3c-0.6,0-1.2-0.3-1.6-0.8c-0.6-0.9-0.4-2.1,0.5-2.7l20.5-14.6l0-0.1l0-0.2l-1.1-9.4
						c-0.1-1.1,0.6-2,1.7-2.1c1-0.1,2,0.6,2.1,1.7l1.1,9.6c0,0.2,0,0.3,0,0.5l-0.1,0.8c0,0.2-0.1,0.4-0.2,0.6l-0.4,0.7
						c-0.1,0.3-0.3,0.5-0.6,0.7l-20.9,14.8C74.6,405.1,74.2,405.3,73.8,405.3z"/>
				</g>
				<g>
					<path class="st13" d="M88.2,167.5c-0.8,0-1.6-0.5-1.8-1.3l-0.9-2.6c0,0,0-0.1,0-0.1l-1-3.7c0,0,0-0.1,0-0.1l-2.8-12.1
						c-0.2-1,0.4-2.1,1.4-2.3c1-0.2,2.1,0.4,2.3,1.4l2.8,12.1l1,3.6l0.3,0.9l0.4-0.1l9.7-2.4c1-0.3,2.1,0.4,2.3,1.4
						c0.3,1-0.4,2.1-1.4,2.3l-11.9,2.9C88.4,167.5,88.3,167.5,88.2,167.5z"/>
				</g>
				<g>
					<path class="st13" d="M96.4,201.5c-0.9,0-1.7-0.6-1.9-1.6c-0.2-1,0.5-2,1.5-2.2l17.3-3.3c1-0.2,2,0.5,2.2,1.5
						c0.2,1-0.5,2-1.5,2.2l-17.3,3.3C96.6,201.5,96.5,201.5,96.4,201.5z"/>
				</g>
				<g>
					<path class="st13" d="M212,86.7c-0.7,0-1.3-0.3-1.7-0.9L204,74.9c-0.5-0.9-0.2-2.1,0.7-2.6c0.9-0.5,2.1-0.2,2.6,0.7l6.4,10.8
						c0.5,0.9,0.2,2.1-0.7,2.6C212.7,86.6,212.3,86.7,212,86.7z"/>
				</g>
				<g>
					<path class="st13" d="M227,77.7c-0.7,0-1.3-0.3-1.6-0.9l-7.4-12.3c-0.5-0.9-0.2-2.1,0.7-2.6c0.9-0.5,2.1-0.3,2.6,0.7l7.4,12.3
						c0.5,0.9,0.2,2.1-0.7,2.6C227.6,77.6,227.3,77.7,227,77.7z"/>
				</g>
				<g>
					<path class="st13" d="M265.3,140.5c-0.6,0-1.3-0.3-1.6-0.9c-0.6-0.9-0.3-2.1,0.6-2.6l10.3-6.3l0,0l-2.9-5l-4.7-7.1l-8.5-12.7
						c-0.2-0.2-0.3-0.5-0.3-0.8l-0.2-1.5c0-0.3,0-0.6,0.1-0.9l0.5-1.5c0.1-0.3,0.3-0.6,0.5-0.8l4.6-4.2c0.8-0.7,2-0.7,2.7,0.1
						c0.7,0.8,0.7,2-0.1,2.7l-4.2,3.8l-0.2,0.6l0.1,0.7l13,19.5c0,0,0,0.1,0.1,0.1l3.1,5.4c0.1,0.2,0.2,0.4,0.2,0.6l0.2,0.9
						c0,0.1,0,0.2,0,0.4v0.7c0,0.3-0.1,0.6-0.2,0.9l-0.2,0.3c-0.2,0.3-0.4,0.6-0.7,0.7l-11.1,6.8C266,140.4,265.7,140.5,265.3,140.5
						z"/>
				</g>
				<g>
					<path class="st13" d="M288.1,239.1c-0.7,0-1.4-0.4-1.8-1.1c-0.4-1,0-2.1,1-2.5l19.4-8.6l28.4-13.3c1-0.4,2.1,0,2.6,0.9
						c0.4,1,0,2.1-0.9,2.6l-28.5,13.3l-19.5,8.6C288.6,239,288.3,239.1,288.1,239.1z"/>
				</g>
				<g>
					<path class="st13" d="M285.2,229.2c-0.7,0-1.5-0.4-1.8-1.2l-5.2-12.1c-0.1-0.1-0.1-0.3-0.1-0.5l-0.3-1.9c-0.1-0.3,0-0.7,0.1-1
						l0.6-1.5c0.1-0.3,0.3-0.5,0.5-0.7l2.5-2.2c0.1-0.1,0.3-0.2,0.4-0.3l24.8-12.3c0.3-0.1,0.5-0.2,0.8-0.2l3-0.1
						c0.2,0,0.5,0,0.7,0.1l1.7,0.6c0.3,0.1,0.6,0.3,0.8,0.5l0.9,1.1c0.1,0.2,0.3,0.3,0.3,0.5l5.5,13.9c0.4,1-0.1,2.1-1.1,2.5
						c-1,0.4-2.1-0.1-2.5-1.1l-5.4-13.6l-0.4-0.5l-0.9-0.3l-2.2,0l-24.2,12l-2,1.8l-0.2,0.6l0.2,1.1l5.1,11.9c0.4,1,0,2.1-1,2.5
						C285.7,229.2,285.5,229.2,285.2,229.2z"/>
				</g>
				<g>
					<path class="st13" d="M238.9,360.7c-0.8,0-1.5-0.5-1.8-1.3l-5.7-15.5l-8.3-25.4c-0.3-1,0.2-2.1,1.2-2.4c1-0.3,2.1,0.2,2.4,1.2
						l8.3,25.4l5.7,15.5c0.4,1-0.1,2.1-1.1,2.5C239.3,360.6,239.1,360.7,238.9,360.7z"/>
				</g>
				<g>
					<path class="st13" d="M257.2,368.4c-0.8,0-1.5-0.5-1.8-1.2c-0.4-1,0.1-2.1,1.1-2.5l23.5-9l0.4-0.3c0.8-0.7,2-0.6,2.7,0.2
						c0.7,0.8,0.6,2-0.2,2.7l-0.6,0.5c-0.2,0.2-0.4,0.3-0.6,0.4l-23.8,9.1C257.6,368.3,257.4,368.4,257.2,368.4z"/>
				</g>
				<g>
					<path class="st13" d="M198.7,373.7c-0.8,0-1.6-0.5-1.8-1.3c-0.3-1,0.2-2.1,1.2-2.4l30.9-10l9.2-3c0.1,0,0.1,0,0.2-0.1l5-1.1
						l33.4-12.3c1-0.4,2.1,0.1,2.5,1.1c0.4,1-0.1,2.1-1.1,2.5l-33.6,12.3c-0.1,0-0.2,0.1-0.3,0.1l-5.1,1.1l-9.1,3l-30.9,10
						C199.1,373.7,198.9,373.7,198.7,373.7z"/>
				</g>
				<g>
					<path class="st13" d="M291.8,270.8c-0.8,0-1.5-0.5-1.8-1.2c-0.4-1,0.1-2.1,1.1-2.5l33.4-12.6l-1.5-4.3l-2.7-6.8
						c-0.4-1,0.1-2.1,1.1-2.5c1-0.4,2.1,0.1,2.5,1.1l2.7,6.8l2.2,6.2c0.4,1-0.2,2.1-1.1,2.4l-35.2,13.2
						C292.3,270.7,292,270.8,291.8,270.8z"/>
				</g>
				<g>
					<path class="st13" d="M277.6,231.9c-0.8,0-1.5-0.5-1.8-1.3c-0.3-1,0.2-2.1,1.2-2.4l7.6-2.6L318,211c1-0.4,2.1,0,2.5,1
						c0.4,1,0,2.1-1,2.5L286,229.1c0,0-0.1,0-0.1,0.1l-7.6,2.6C278,231.8,277.8,231.9,277.6,231.9z"/>
				</g>
				<g>
					<path class="st13" d="M194.6,357.5c-1,0-1.8-0.8-1.9-1.8l-1.4-16.9c0-0.2,0-0.4,0-0.5l0.2-1.1c0.1-0.4,0.2-0.7,0.5-1l0.8-0.9
						c0.2-0.2,0.5-0.4,0.8-0.5l22.1-7.6c0,0,0.1,0,0.1,0l1.1-0.3c0.4-0.1,0.8-0.1,1.2,0l1.3,0.4c0.5,0.2,1,0.6,1.2,1.2l5.8,16.7
						c0.3,1-0.2,2.1-1.2,2.4c-1,0.4-2.1-0.2-2.4-1.2l-5.5-15.7L217,331l-21.6,7.4l-0.1,0.1l-0.1,0.3l1.3,16.6c0.1,1.1-0.7,2-1.8,2.1
						C194.7,357.5,194.6,357.5,194.6,357.5z"/>
				</g>
				<g>
					<path class="st13" d="M296.8,323.1c-0.5,0-1-0.2-1.4-0.6c-0.7-0.8-0.7-2,0.1-2.7l9.9-9.5c0.8-0.7,2-0.7,2.7,0.1
						c0.7,0.8,0.7,2-0.1,2.7l-9.9,9.5C297.8,322.9,297.3,323.1,296.8,323.1z"/>
				</g>
				<g>
					<path class="st13" d="M287.8,234.7c-0.7,0-1.4-0.4-1.7-1.1l-2.6-5.5c-0.5-1,0-2.1,0.9-2.6c1-0.5,2.1,0,2.6,0.9l2.6,5.5
						c0.5,1,0,2.1-0.9,2.6C288.4,234.7,288.1,234.7,287.8,234.7z"/>
				</g>
				<g>
					<path class="st13" d="M139.6,383c-0.6,0-1.3-0.3-1.6-0.9l-4.6-7.2c-0.2-0.2-0.2-0.5-0.3-0.8l-0.2-1.4c0-0.1,0-0.2,0-0.2v-2.7
						c0-1.1,0.9-1.9,1.9-1.9s1.9,0.9,1.9,1.9v2.6l0.1,0.8l4.4,6.9c0.6,0.9,0.3,2.1-0.6,2.7C140.3,382.9,140,383,139.6,383z"/>
				</g>
				<g>
					<path class="st13" d="M229.4,182.8c-0.7,0-1.3-0.4-1.7-1l-4.7-8.6l-6.2-8.9c-0.6-0.9-0.4-2.1,0.5-2.7c0.9-0.6,2.1-0.4,2.7,0.5
						l6.3,9c0,0.1,0.1,0.1,0.1,0.2l4.7,8.7c0.5,0.9,0.2,2.1-0.8,2.6C230,182.7,229.7,182.8,229.4,182.8z"/>
				</g>
				<g>
					<path class="st13" d="M100,164.7c-0.9,0-1.7-0.7-1.9-1.6l-2-12.1c0,0,0-0.1,0-0.1l-0.8-6.6c-0.1-1.1,0.6-2,1.7-2.1
						c1.1-0.1,2,0.6,2.1,1.7l0.7,6.5l2,12c0.2,1-0.5,2-1.6,2.2C100.2,164.7,100.1,164.7,100,164.7z"/>
				</g>
				<g>
					<path class="st13" d="M103.5,344.2c-0.2,0-0.3,0-0.5,0L92,342.6c-1.9-0.3-3.2-2.1-3-4c0.3-1.9,2.1-3.2,4-3l10.6,1.6l5.3-0.1
						l6.6-1.2l3.7-1.1L131,331l6.9-2.7l2.3-2.4l0.6-24.3l-0.5-45c0-1.9,1.5-3.5,3.5-3.6c0,0,0,0,0,0c1.9,0,3.5,1.5,3.5,3.5l0.5,45
						c0,0,0,0.1,0,0.1l-0.6,25.8c0,0.9-0.4,1.7-0.9,2.3l-3.7,4c-0.4,0.4-0.8,0.7-1.3,0.9l-7.8,3c-0.1,0-0.1,0-0.2,0.1l-11.8,3.9
						c0,0-0.1,0-0.1,0l-3.9,1.1c-0.1,0-0.3,0.1-0.4,0.1l-7.1,1.2c-0.2,0-0.3,0-0.5,0.1L103.5,344.2
						C103.5,344.2,103.5,344.2,103.5,344.2z"/>
				</g>
				<g>
					<path class="st13" d="M319.8,175.4c-1.4,0-2.7-0.8-3.2-2.2L305,144.2l-16.1-37.3l-21.1-23.7l-22.5-18.3l-14.2-10l-5.5-3
						l-8.5-3.3c-0.1,0-0.2-0.1-0.2-0.1l-34.9-16.6c-1.7-0.8-2.4-2.9-1.6-4.6c0.8-1.7,2.9-2.4,4.6-1.6l34.8,16.5l8.6,3.3
						c0.1,0.1,0.3,0.1,0.4,0.2l5.9,3.2c0.1,0.1,0.2,0.1,0.3,0.2l14.5,10.1c0.1,0,0.1,0.1,0.2,0.1L272.3,78c0.1,0.1,0.3,0.2,0.4,0.4
						l21.7,24.3c0.2,0.3,0.4,0.6,0.6,0.9l16.3,37.9c0,0,0,0.1,0,0.1l11.6,29.1c0.7,1.8-0.2,3.8-1.9,4.5
						C320.6,175.4,320.2,175.4,319.8,175.4z"/>
				</g>
				<g>
					<path class="st13" d="M121,390.8c-1.3,0-2.6-0.8-3.1-2.1l-1.9-4.4l-5.5-12.2l-2.9-5.7l-4.1-7.6l-5.6-7c0,0,0-0.1-0.1-0.1
						l-7.4-9.8l-3.8-1.5l-5.3-1.9L62.1,333L51,329.7l-22.1-5.1l-1.6,1.2l-2.4,3.5c-1.1,1.6-3.2,2-4.8,0.9c-1.6-1.1-2-3.2-0.9-4.8
						l2.7-3.9c0.2-0.3,0.5-0.6,0.7-0.8l3.3-2.5c0.8-0.6,1.9-0.9,2.9-0.6l23.8,5.5c0.1,0,0.1,0,0.2,0.1l11.1,3.4l19.3,5.5
						c0.1,0,0.2,0,0.2,0.1l5.4,2c0,0,0.1,0,0.1,0l4.7,1.9c0.6,0.2,1.1,0.6,1.5,1.1l7.9,10.6l5.8,7.1c0.1,0.2,0.2,0.3,0.3,0.5
						l4.3,7.9c0,0,0,0,0,0.1l3,5.9c0,0.1,0.1,0.1,0.1,0.2l5.5,12.3l2,4.5c0.8,1.7,0,3.8-1.8,4.5C122,390.7,121.5,390.8,121,390.8z"
						/>
				</g>
				<g>
					<path class="st13" d="M99,368c-0.1,0-0.2,0-0.4,0c-1.9-0.2-3.3-1.9-3.1-3.8l1.5-14.9c0.2-1.9,1.9-3.3,3.8-3.1
						c1.9,0.2,3.3,1.9,3.1,3.8l-1.5,14.9C102.2,366.7,100.7,368,99,368z"/>
				</g>
				<g>
					<path class="st13" d="M308,318.3c-1.4,0-2.7-0.9-3.2-2.2c-0.7-1.8,0.2-3.8,2-4.4l41.8-15.6l18.1-6.6c1.8-0.7,3.8,0.3,4.4,2.1
						c0.7,1.8-0.3,3.8-2,4.4l-18.1,6.6L309.2,318C308.8,318.2,308.4,318.3,308,318.3z"/>
				</g>
				<g>
					<path class="st13" d="M271.6,216.5c-1.1,0-2.2-0.6-2.9-1.6c-1-1.6-0.6-3.7,1-4.7l14.5-9.3c0,0,0.1,0,0.1-0.1l32.5-19.1
						c1.6-1,3.7-0.4,4.7,1.2c1,1.6,0.4,3.7-1.2,4.7l-32.5,19.1l-14.5,9.3C272.8,216.3,272.2,216.5,271.6,216.5z"/>
				</g>
				<g>
					<path class="st13" d="M25,300.3c-1.5,0-2.9-1-3.3-2.5c-0.5-1.8,0.5-3.7,2.4-4.3l7.3-2.1l12.7-3.5c0,0,0.1,0,0.1,0l7.9-1.8
						c0.2-0.1,0.5-0.1,0.8-0.1h9.5l17.7-0.1l7.4-1.2l4-1.2l4.4-2.2l4.7-2.8l4.2-3.4l13.5-11.6c0.2-0.1,0.3-0.2,0.5-0.3l7-4.2
						c0.2-0.1,0.3-0.2,0.5-0.2l7.9-3.2c0.1-0.1,0.3-0.1,0.4-0.1l8.4-2.2l3.4-1.1c0.2-0.1,0.5-0.1,0.8-0.1l8.8-0.7
						c1.9-0.1,3.6,1.3,3.7,3.1c0.2,1.9-1.3,3.6-3.1,3.7l-8.4,0.7l-3.1,1c-0.1,0-0.1,0-0.2,0l-8.3,2.2l-7.5,3l-6.5,3.9l-13.3,11.5
						c0,0,0,0-0.1,0.1l-4.4,3.6c-0.1,0.1-0.3,0.2-0.4,0.3l-5,3c-0.1,0-0.1,0.1-0.2,0.1l-4.8,2.4c-0.2,0.1-0.4,0.2-0.6,0.2l-4.6,1.3
						c-0.1,0-0.3,0.1-0.4,0.1l-7.8,1.3c-0.2,0-0.4,0-0.5,0l-18,0.1h-9.2l-7.4,1.7l-12.6,3.4l-7.3,2.1
						C25.6,300.3,25.3,300.3,25,300.3z"/>
				</g>
				<g>
					<path class="st13" d="M171.3,257.3c-1.8,0-3.3-1.4-3.4-3.3c-0.1-1.9,1.4-3.5,3.3-3.6l20.9-1.1l7.9-0.6l5.8-1.1l3.6-1.3
						l10.7-3.9l15.7-6.6l2.7-1.6l19-15.1c0,0,0.1-0.1,0.1-0.1l12-8.8c1.5-1.1,3.7-0.8,4.8,0.7c1.1,1.5,0.8,3.7-0.7,4.8l-11.9,8.7
						l-19.1,15.2c-0.1,0.1-0.3,0.2-0.4,0.3l-3.2,1.8c-0.1,0.1-0.3,0.1-0.4,0.2l-4.5,1.8l-11.5,4.8c-0.1,0-0.1,0-0.2,0.1l-10.8,3.9
						l-3.9,1.4c-0.2,0.1-0.3,0.1-0.5,0.1l-6.3,1.2c-0.1,0-0.2,0-0.4,0l-8.2,0.6c0,0-0.1,0-0.1,0l-20.9,1.1
						C171.4,257.3,171.4,257.3,171.3,257.3z"/>
				</g>
				<g>
					<path class="st13" d="M334.6,386.4c-1.3,0-2.6-0.8-3.2-2.1l-0.6-1.5l-1-2.1c0,0,0-0.1,0-0.1l-4.3-10.4c0,0,0-0.1,0-0.1
						l-1.8-4.7l-17.1-45.5l-1.7-3.6c0,0,0-0.1-0.1-0.1l-1.3-3.2c0,0,0-0.1-0.1-0.1l-11.9-33.3c0,0,0-0.1,0-0.1l-3-9.4l-4.7-12.3
						c0,0,0-0.1,0-0.1l-9.5-26.5c0-0.1,0-0.1-0.1-0.2l-3.9-12.7l-3.7-6.9l-20.6-38.9l-43.9-78.6l-1.3-2.5l-10.1-18.7
						c-0.1-0.2-0.2-0.4-0.2-0.6l-6.3-19.3c-0.1-0.2-0.1-0.4-0.1-0.6l-0.3-2.4l-1-6.2l-2.1-10.4c0,0,0-0.1,0-0.1l-0.6-3.6
						c-0.3-1.9,0.9-3.7,2.8-4c1.9-0.3,3.7,0.9,4,2.8l0.6,3.6l2.1,10.4c0,0,0,0.1,0,0.1l1.1,6.3c0,0,0,0.1,0,0.1l0.3,2.1l6.1,18.7
						l11.3,20.9l43.9,78.6l22.4,42.3l2,3.8c0.1,0.2,0.2,0.4,0.3,0.6l3.9,13l9.4,26.4l4.8,12.3c0,0.1,0.1,0.1,0.1,0.2l3,9.4
						l11.8,33.2l1.2,3l1.7,3.6c0,0.1,0.1,0.1,0.1,0.2l17.2,45.6l1.8,4.6l4.3,10.3l1,2.1c0,0,0,0.1,0,0.1l0.7,1.6
						c0.7,1.8-0.1,3.8-1.8,4.5C335.5,386.3,335.1,386.4,334.6,386.4z"/>
				</g>
				<g>
					<path class="st13" d="M119.1,386.3c-0.7,0-1.4-0.2-2.1-0.7l-4.2-3.2l-2.6-1.1l-3.3-0.7l-5.5-0.5c-0.1,0-0.2,0-0.2,0l-5.3-0.8
						c-1.9-0.3-3.2-2.1-2.9-3.9c0.3-1.9,2-3.2,3.9-2.9l5.2,0.8l5.6,0.5c0.1,0,0.3,0,0.4,0.1l3.9,0.8c0.2,0.1,0.4,0.1,0.6,0.2
						l3.3,1.4c0.2,0.1,0.5,0.2,0.7,0.4l4.6,3.4c1.5,1.1,1.8,3.3,0.7,4.8C121.2,385.9,120.1,386.3,119.1,386.3z"/>
				</g>
				<g>
					<path class="st13" d="M106,378.7c-0.1,0-0.2,0-0.4,0l-4-0.4c-0.5,0-1-0.2-1.4-0.5l-2.5-1.5c-0.5-0.3-1-0.8-1.3-1.3l-1.2-2.1
						c-0.2-0.4-0.3-0.8-0.4-1.2l-0.2-1.9c0-0.1,0-0.3,0-0.4l0-2.1c0-0.4,0.1-0.7,0.2-1.1l0.9-2.7c0.3-0.9,0.9-1.6,1.7-2l9-4.5
						c1.7-0.8,3.8-0.1,4.6,1.6c0.8,1.7,0.2,3.8-1.6,4.6l-7.7,3.8l-0.3,0.8l0,1.3l0.1,1l0.4,0.7l1,0.6l2.6,0.3l2.5-0.7l3-2.9
						c1.4-1.3,3.5-1.3,4.9,0.1c1.3,1.4,1.3,3.5-0.1,4.9l-3.6,3.4c-0.4,0.4-0.9,0.7-1.4,0.8l-3.9,1.2
						C106.7,378.6,106.4,378.7,106,378.7z"/>
				</g>
				<g>
					<path class="st13" d="M156,258.1c-1.8,0-3.3-1.4-3.4-3.2c-0.1-1.9,1.3-3.5,3.2-3.6l15.3-0.9c1.9-0.1,3.5,1.3,3.6,3.2
						c0.1,1.9-1.3,3.5-3.2,3.6l-15.3,0.9C156.1,258.1,156.1,258.1,156,258.1z"/>
				</g>
			</g>
			<polygon class="st797" points="155.9,265.3 152.6,326.9 184,328.9 216.4,319.8 214.2,310.3 260.5,297.1 255.2,285.2 282,270.8 
				267,231.2 225.7,255.7 			"/>
			<polygon class="st798" points="163.7,121.9 172.1,151.8 219.2,136.9 202.1,103.1 			"/>
			<polygon class="st798" points="149.9,176.5 149.9,248.1 167.9,247.6 169,193.5 163.7,174.9 			"/>
			
				<rect x="160.8" y="321.4" transform="matrix(8.980198e-02 -0.996 0.996 8.980198e-02 -183.6094 471.6626)" class="st798" width="10.9" height="29.8"/>
			
				<rect x="155.6" y="338.8" transform="matrix(8.986565e-02 -0.996 0.996 8.986565e-02 -201.4928 478.4325)" class="st798" width="10.9" height="21.3"/>
			
				<rect x="237.7" y="126" transform="matrix(0.8699 -0.4933 0.4933 0.8699 -33.4791 138.7016)" class="st798" width="16.9" height="13.7"/>
			
				<rect x="225.2" y="103.8" transform="matrix(0.8616 -0.5076 0.5076 0.8616 -23.7259 134.3797)" class="st798" width="18.7" height="13.7"/>
			<polygon class="st798" points="266.9,169 306.2,151.8 316.8,178.1 281.7,198 			"/>
		</g>
		<g>
			<path class="st783" d="M107.9,129.7c-13.3,0-0.2,22-0.2,22S122.2,129.7,107.9,129.7z M107.9,139c-1.8,0-3.3-1.5-3.3-3.3
				c0-1.8,1.5-3.3,3.3-3.3c1.8,0,3.3,1.5,3.3,3.3C111.2,137.5,109.7,139,107.9,139z"/>
			<path class="st799" d="M238.6,339.8l54-18l12.8-11.4l-32.9-95l-2.6-2.4L240,236.4l-33.3,14.2l-35.4,3l-27.2,2.2l0.7-39.7
				l-1.9-28.4c0,0-4.9-13.4-8.8-17.8l-30.7-28.6"/>
		</g>
		<path class="st783" d="M238.6,324.8c-13.3,0-0.2,22-0.2,22S253,324.8,238.6,324.8z M238.6,334.1c-1.8,0-3.3-1.5-3.3-3.3
			c0-1.8,1.5-3.3,3.3-3.3c1.9,0,3.3,1.5,3.3,3.3C242,332.6,240.5,334.1,238.6,334.1z"/>
	</g>
</g>
</svg>
