<?xml version="1.0" encoding="utf-8"?>
<!-- Generator: Adobe Illustrator 23.0.1, SVG Export Plug-In . SVG Version: 6.00 Build 0)  -->
<svg version="1.1" xmlns="http://www.w3.org/2000/svg" xmlns:xlink="http://www.w3.org/1999/xlink" x="0px" y="0px"
	 viewBox="0 0 35 35" style="enable-background:new 0 0 35 35;" xml:space="preserve">
<style type="text/css">
	.st0{fill:#FFFFFF;}
	.st1{fill:#666666;}
	.st2{fill:#EFF3FF;}
	.st3{fill:#6CA941;}
	.st4{fill:#F5D20F;}
	.st5{fill:#BFBFBF;}
	.st6{opacity:0.9;fill:#FFFFFF;}
	.st7{fill:none;stroke:#689F40;stroke-miterlimit:10;}
	.st8{fill:#FFFFFF;stroke:#689F40;stroke-miterlimit:10;}
	.st9{fill:none;stroke:#BFBFBF;stroke-miterlimit:10;}
	.st10{fill:none;stroke:#6CA941;stroke-miterlimit:10;}
	.st11{fill:#FF0000;}
	.st12{fill:#689F40;}
	.st13{fill:#CCCCCC;}
	.st14{fill:none;stroke:#FFFFFF;stroke-width:6;stroke-linecap:round;stroke-miterlimit:10;}
	.st15{fill:#E6E6E6;}
	.st16{opacity:0.4;fill:#6CA941;}
	.st17{fill:#4D4D4D;}
	.st18{fill:#E9C924;}
	.st19{fill:#79B9A4;}
	.st20{fill:#62676F;}
	.st21{fill:url(#SVGID_1_);}
	.st22{opacity:0.7;}
	.st23{fill:#FFFFFF;stroke:#6CA941;stroke-miterlimit:10;}
	.st24{fill:url(#SVGID_2_);}
	.st25{fill:url(#SVGID_3_);}
	.st26{opacity:0.3;fill:#FFFFFF;}
	.st27{fill:#82419B;}
	.st28{fill:url(#SVGID_4_);}
	.st29{opacity:0.6;fill:#EBFBFB;}
	.st30{opacity:0.7;fill:url(#SVGID_5_);}
	.st31{fill:url(#SVGID_6_);}
	.st32{fill:#8DBEDD;}
	.st33{fill:#AA98D1;}
	.st34{opacity:0.4;fill:#5D82C1;}
	.st35{opacity:0.6;}
	.st36{fill:#67A0D4;}
	.st37{opacity:0.3;fill:#67A0D4;}
	.st38{opacity:0.4;fill:#6256C1;}
	.st39{opacity:0.9;fill:#8A45A5;}
	.st40{opacity:0.9;fill:#B176CB;}
	.st41{opacity:0.8;fill:#A954CA;}
	.st42{opacity:0.5;fill:#5985A9;}
	.st43{fill:#454B60;}
	.st44{fill:#181F30;}
	.st45{fill:#2B3141;}
	.st46{fill:#798690;}
	.st47{fill:#93A4B0;}
	.st48{opacity:0.4;fill:#454B60;}
	.st49{fill:#D46D6D;}
	.st50{fill:#D4E0E3;}
	.st51{opacity:0.3;fill:#454B60;}
	.st52{fill:#1E253D;}
	.st53{fill:#B14957;}
	.st54{opacity:0.5;fill:#8D414B;}
	.st55{opacity:0.3;fill:#D46D6D;}
	.st56{fill:#202434;}
	.st57{fill:#3D465A;}
	.st58{fill:#515A70;}
	.st59{fill:#009F40;}
	.st60{fill:#30364E;}
	.st61{fill:#D4AA91;}
	.st62{fill:#EAC4A5;}
	.st63{fill:#5A4445;}
	.st64{fill:#464951;}
	.st65{fill:#CE8E80;}
	.st66{fill:#FFB424;}
	.st67{fill:url(#SVGID_7_);}
	.st68{fill:url(#SVGID_8_);}
	.st69{fill:url(#SVGID_9_);}
	.st70{opacity:0.7;fill:url(#SVGID_10_);}
	.st71{fill:url(#SVGID_11_);}
</style>
<g id="Capa_2">
</g>
<g id="Capa_1">
	<g>
		<path class="st15" d="M28.6,4H6.4C5.1,4,4,5.1,4,6.4v4.7v17.5C4,29.9,5.1,31,6.4,31h22.3c1.3,0,2.4-1.1,2.4-2.4V11.1V6.4
			C31,5.1,29.9,4,28.6,4z M5.6,6.4c0-0.4,0.4-0.8,0.8-0.8h22.3c0.4,0,0.8,0.4,0.8,0.8v4H5.6V6.4z M29.4,28.6c0,0.4-0.4,0.8-0.8,0.8
			H6.4c-0.4,0-0.8-0.4-0.8-0.8V11.9h23.9V28.6z"/>
		<circle class="st15" cx="8" cy="7.9" r="0.8"/>
		<circle class="st15" cx="11.2" cy="7.9" r="0.8"/>
		<circle class="st15" cx="14.3" cy="7.9" r="0.8"/>
		<path class="st15" d="M8,23.6h6.3c0.4,0,0.8-0.4,0.8-0.8v-1.1c0-1.4-0.7-2.6-1.8-3.3c0.5-0.5,0.8-1.2,0.8-2c0-1.6-1.3-2.9-2.9-2.9
			s-2.9,1.3-2.9,2.9c0,0.7,0.3,1.4,0.8,2c-1.1,0.7-1.8,1.9-1.8,3.3v1.1C7.2,23.3,7.6,23.6,8,23.6z M9.8,16.5c0-0.7,0.6-1.3,1.3-1.3
			s1.3,0.6,1.3,1.3c0,0.7-0.6,1.3-1.3,1.3S9.8,17.2,9.8,16.5z M8.8,21.8c0-1.3,1.1-2.4,2.4-2.4s2.4,1.1,2.4,2.4V22H8.8V21.8z"/>
		<path class="st15" d="M17.5,15.2H27c0.4,0,0.8-0.4,0.8-0.8s-0.4-0.8-0.8-0.8h-9.5c-0.4,0-0.8,0.4-0.8,0.8S17.1,15.2,17.5,15.2z"/>
		<path class="st15" d="M17.5,18.3H27c0.4,0,0.8-0.4,0.8-0.8c0-0.4-0.4-0.8-0.8-0.8h-9.5c-0.4,0-0.8,0.4-0.8,0.8
			S17.1,18.3,17.5,18.3z"/>
		<path class="st15" d="M17.5,21.5H27c0.4,0,0.8-0.4,0.8-0.8c0-0.4-0.4-0.8-0.8-0.8h-9.5c-0.4,0-0.8,0.4-0.8,0.8
			C16.7,21.2,17.1,21.5,17.5,21.5z"/>
		<path class="st15" d="M27,23.1h-3.2c-0.4,0-0.8,0.4-0.8,0.8v3.2c0,0.4,0.4,0.8,0.8,0.8H27c0.4,0,0.8-0.4,0.8-0.8v-3.2
			C27.8,23.4,27.4,23.1,27,23.1z M26.2,26.3h-1.6v-1.6h1.6V26.3z"/>
		<path class="st15" d="M17.5,27.8h3.2c0.4,0,0.8-0.4,0.8-0.8v-3.2c0-0.4-0.4-0.8-0.8-0.8h-3.2c-0.4,0-0.8,0.4-0.8,0.8v3.2
			C16.7,27.5,17.1,27.8,17.5,27.8z M18.3,24.7h1.6v1.6h-1.6V24.7z"/>
		<path class="st15" d="M8,26.8h6.3c0.4,0,0.8-0.4,0.8-0.8c0-0.4-0.4-0.8-0.8-0.8H8c-0.4,0-0.8,0.4-0.8,0.8
			C7.2,26.4,7.6,26.8,8,26.8z"/>
	</g>
</g>
</svg>
