<?xml version="1.0" encoding="utf-8"?>
<!-- Generator: Adobe Illustrator 23.0.1, SVG Export Plug-In . SVG Version: 6.00 Build 0)  -->
<svg version="1.1" xmlns="http://www.w3.org/2000/svg" xmlns:xlink="http://www.w3.org/1999/xlink" x="0px" y="0px"
	 viewBox="0 0 60 60" style="enable-background:new 0 0 60 60;" xml:space="preserve">
<style type="text/css">
	.st0{fill:#FFFFFF;}
	.st1{fill:#666666;}
	.st2{fill:#EFF3FF;}
	.st3{fill:#6CA941;}
	.st4{fill:#F5D20F;}
	.st5{fill:#BFBFBF;}
	.st6{opacity:0.9;fill:#FFFFFF;}
	.st7{fill:none;stroke:#689F40;stroke-miterlimit:10;}
	.st8{fill:#FFFFFF;stroke:#689F40;stroke-miterlimit:10;}
	.st9{fill:none;stroke:#BFBFBF;stroke-miterlimit:10;}
	.st10{fill:none;stroke:#6CA941;stroke-miterlimit:10;}
	.st11{fill:#FF0000;}
	.st12{fill:#689F40;}
	.st13{fill:#CCCCCC;}
	.st14{fill:none;stroke:#FFFFFF;stroke-width:6;stroke-linecap:round;stroke-miterlimit:10;}
	.st15{fill:#E6E6E6;}
	.st16{opacity:0.4;fill:#6CA941;}
	.st17{fill:#4D4D4D;}
	.st18{fill:#E9C924;}
	.st19{fill:#79B9A4;}
	.st20{fill:#62676F;}
	.st21{fill:url(#SVGID_1_);}
	.st22{opacity:0.7;}
	.st23{fill:#FFFFFF;stroke:#6CA941;stroke-miterlimit:10;}
	.st24{fill:url(#SVGID_2_);}
	.st25{fill:url(#SVGID_3_);}
	.st26{opacity:0.3;fill:#FFFFFF;}
	.st27{fill:#82419B;}
	.st28{fill:url(#SVGID_4_);}
	.st29{opacity:0.6;fill:#EBFBFB;}
	.st30{opacity:0.7;fill:url(#SVGID_5_);}
	.st31{fill:url(#SVGID_6_);}
	.st32{fill:#8DBEDD;}
	.st33{fill:#AA98D1;}
	.st34{opacity:0.4;fill:#5D82C1;}
	.st35{opacity:0.6;}
	.st36{fill:#67A0D4;}
	.st37{opacity:0.3;fill:#67A0D4;}
	.st38{opacity:0.4;fill:#6256C1;}
	.st39{opacity:0.9;fill:#8A45A5;}
	.st40{opacity:0.9;fill:#B176CB;}
	.st41{opacity:0.8;fill:#A954CA;}
	.st42{opacity:0.5;fill:#5985A9;}
	.st43{fill:#454B60;}
	.st44{fill:#181F30;}
	.st45{fill:#2B3141;}
	.st46{fill:#798690;}
	.st47{fill:#93A4B0;}
	.st48{opacity:0.4;fill:#454B60;}
	.st49{fill:#D46D6D;}
	.st50{fill:#D4E0E3;}
	.st51{opacity:0.3;fill:#454B60;}
	.st52{fill:#1E253D;}
	.st53{fill:#B14957;}
	.st54{opacity:0.5;fill:#8D414B;}
	.st55{opacity:0.3;fill:#D46D6D;}
	.st56{fill:#202434;}
	.st57{fill:#3D465A;}
	.st58{fill:#515A70;}
	.st59{fill:#009F40;}
	.st60{fill:#30364E;}
	.st61{fill:#D4AA91;}
	.st62{fill:#EAC4A5;}
	.st63{fill:#5A4445;}
	.st64{fill:#464951;}
	.st65{fill:#CE8E80;}
	.st66{fill:#FFB424;}
	.st67{fill:url(#SVGID_7_);}
	.st68{fill:url(#SVGID_8_);}
	.st69{fill:url(#SVGID_9_);}
	.st70{opacity:0.7;fill:url(#SVGID_10_);}
	.st71{fill:url(#SVGID_11_);}
</style>
<g id="Capa_2">
</g>
<g id="Capa_1">
	<g>
		<path class="st3" d="M56.1,29.2c0,14.9-12,26.9-26.9,26.9c-14.9,0-26.9-12-26.9-26.9c0-14.9,12-26.9,26.9-26.9
			C44.1,2.3,56.1,14.3,56.1,29.2z"/>
		<g>
			<path class="st0" d="M41.1,42.2H17.4c-1.2,0-2.2-1.1-2-2.3c1.1-6.6,6.8-11.7,13.8-11.7S41.9,33.3,43,40
				C43.2,41.1,42.3,42.2,41.1,42.2z"/>
			<path class="st0" d="M29.2,26.3c3.7,0,6.7-3,6.7-6.7s-3-6.7-6.7-6.7c-3.7,0-6.7,3-6.7,6.7S25.6,26.3,29.2,26.3z"/>
		</g>
		<path class="st19" d="M57.7,46c0,6.5-5.2,11.7-11.7,11.7c-6.5,0-11.7-5.2-11.7-11.7c0-6.5,5.2-11.7,11.7-11.7
			C52.4,34.3,57.7,39.6,57.7,46z"/>
		<g>
			<path class="st0" d="M50.5,50.1c-0.8,0-1.3-0.5-1.6-0.8c-0.3-0.3-0.4-0.4-0.7-0.4c-0.3,0-0.4,0.1-0.7,0.4
				c-0.3,0.3-0.7,0.8-1.6,0.8c-0.8,0-1.3-0.5-1.6-0.8c-0.3-0.3-0.4-0.4-0.7-0.4c-0.3,0-0.4,0.1-0.7,0.4c-0.3,0.3-0.7,0.8-1.6,0.8
				c-0.8,0-1.3-0.5-1.6-0.8c-0.2-0.3-0.4-0.4-0.6-0.4v2.5c0,0.7,0.6,1.3,1.3,1.3h10.9c0.7,0,1.3-0.6,1.3-1.3v-2.5
				c-0.2,0-0.4,0.1-0.6,0.4C51.8,49.7,51.3,50.1,50.5,50.1z"/>
			<path class="st0" d="M51.4,44.4H40.5c-0.7,0-1.3,0.6-1.3,1.3v2c0.8,0,1.2,0.5,1.5,0.8c0.3,0.3,0.4,0.4,0.7,0.4
				c0.3,0,0.4-0.1,0.7-0.4c0.3-0.3,0.7-0.8,1.6-0.8c0.8,0,1.3,0.5,1.6,0.8c0.3,0.3,0.4,0.4,0.7,0.4c0.3,0,0.4-0.1,0.7-0.4
				c0.3-0.3,0.7-0.8,1.6-0.8c0.8,0,1.3,0.5,1.6,0.8c0.3,0.3,0.4,0.4,0.7,0.4c0.3,0,0.4-0.1,0.7-0.4c0.3-0.3,0.7-0.8,1.5-0.8v-2
				C52.7,45,52.2,44.4,51.4,44.4z"/>
			<path class="st0" d="M47.6,42.3c0-0.3-0.2-0.5-0.5-0.5h-2.3c-0.3,0-0.5,0.2-0.5,0.5v1.2h3.2V42.3z"/>
			<path class="st0" d="M46,41.2c0.5,0,0.8-0.4,0.8-0.8c0-0.5-0.4-1.4-0.8-1.4c-0.5,0-0.8,1-0.8,1.4C45.1,40.9,45.5,41.2,46,41.2z"
				/>
		</g>
	</g>
</g>
</svg>
